<?xml version="1.0" encoding="UTF-8" standalone="no"?>
<!-- Created with Inkscape (http://www.inkscape.org/) -->

<svg
   version="1.1"
   id="svg2"
   width="129.66667"
   height="38.666668"
   viewBox="0 0 129.66667 38.666668"
   xmlns:xlink="http://www.w3.org/1999/xlink"
   xmlns="http://www.w3.org/2000/svg"
   xmlns:svg="http://www.w3.org/2000/svg">
  <defs
     id="defs6">
    <linearGradient
       id="linearGradient24335">
      <stop
         style="stop-color:#0066ff;stop-opacity:1;"
         offset="0"
         id="stop24331" />
      <stop
         style="stop-color:#1774ff;stop-opacity:1"
         offset="1"
         id="stop24333" />
    </linearGradient>
    <linearGradient
       id="linearGradient11077">
      <stop
         style="stop-color:#0064fa;stop-opacity:1"
         offset="0"
         id="stop11073" />
      <stop
         style="stop-color:#2af2ff;stop-opacity:1"
         offset="1"
         id="stop11075" />
    </linearGradient>
    <linearGradient
       id="linearGradient4766">
      <stop
         style="stop-color:#0066ff;stop-opacity:1"
         offset="0"
         id="stop4762" />
      <stop
         style="stop-color:#ff1458;stop-opacity:1"
         offset="1"
         id="stop4764" />
    </linearGradient>
    <filter
       style="color-interpolation-filters:sRGB;"
       id="filter4760"
       x="-0.14263733"
       y="-0.4751283"
       width="1.3319672"
       height="1.9594647">
      <feFlood
         flood-opacity="0.101961"
         flood-color="rgb(0,0,0)"
         result="flood"
         id="feFlood4750" />
      <feComposite
         in="flood"
         in2="SourceGraphic"
         operator="in"
         result="composite1"
         id="feComposite4752" />
      <feGaussianBlur
         in="composite1"
         stdDeviation="4.8368"
         result="blur"
         id="feGaussianBlur4754" />
      <feOffset
         dx="3.8"
         dy="0.224972"
         result="offset"
         id="feOffset4756" />
      <feComposite
         in="SourceGraphic"
         in2="offset"
         operator="over"
         result="composite2"
         id="feComposite4758" />
    </filter>
    <filter
       style="color-interpolation-filters:sRGB;"
       id="filter4790"
       x="-0.099843087"
       y="-0.22564069"
       width="1.23237"
       height="1.4556544">
      <feFlood
         flood-opacity="0.101961"
         flood-color="rgb(0,0,0)"
         result="flood"
         id="feFlood4780" />
      <feComposite
         in="flood"
         in2="SourceGraphic"
         operator="in"
         result="composite1"
         id="feComposite4782" />
      <feGaussianBlur
         in="composite1"
         stdDeviation="4.8367998"
         result="blur"
         id="feGaussianBlur4784" />
      <feOffset
         dx="3.8"
         dy="0.224972"
         result="offset"
         id="feOffset4786" />
      <feComposite
         in="SourceGraphic"
         in2="offset"
         operator="over"
         result="composite2"
         id="feComposite4788" />
    </filter>
    <filter
       style="color-interpolation-filters:sRGB;"
       id="filter2310"
       x="-0.18944434"
       y="-0.26299248"
       width="1.4409036"
       height="1.5310818">
      <feFlood
         flood-opacity="0.101961"
         flood-color="rgb(0,0,0)"
         result="flood"
         id="feFlood2300" />
      <feComposite
         in="flood"
         in2="SourceGraphic"
         operator="in"
         result="composite1"
         id="feComposite2302" />
      <feGaussianBlur
         in="composite1"
         stdDeviation="4.8368"
         result="blur"
         id="feGaussianBlur2304" />
      <feOffset
         dx="3.8"
         dy="0.224972"
         result="offset"
         id="feOffset2306" />
      <feComposite
         in="SourceGraphic"
         in2="offset"
         operator="over"
         result="composite2"
         id="feComposite2308" />
    </filter>
    <clipPath
       clipPathUnits="userSpaceOnUse"
       id="clipPath11654">
      <g
         id="g11662"
         transform="matrix(0.36013902,0,0,0.36013902,-2.8222271,8.2453267)">
        <text
           xml:space="preserve"
           style="font-size:26.672px;line-height:1.25;font-family:Calibri;-inkscape-font-specification:Calibri;fill:url(#linearGradient11664);fill-opacity:1;stroke-width:0.416749;filter:url(#filter4760)"
           x="38.810181"
           y="29.474825"
           id="text11658"><tspan
             id="tspan11656"
             x="38.810181"
             y="29.474825"
             style="font-style:normal;font-variant:normal;font-weight:normal;font-stretch:normal;font-size:26.672px;font-family:Bahnschrift;-inkscape-font-specification:'Bahnschrift, Normal';font-variant-ligatures:normal;font-variant-caps:normal;font-variant-numeric:normal;font-variant-east-asian:normal;fill:url(#linearGradient11664);fill-opacity:1;stroke-width:0.416749">idclang</tspan></text>
        <path
           d="M 1.4389829,36.945006 13.522867,5.4335809 H 4.9266093 V 1.7249062 H 18.664888 c 0,0 0.429596,-0.048185 0.539484,0.2257572 2.3818,5.9375813 13.574116,34.9943426 13.574116,34.9943426 z M 17.059615,5.998476 c -3.268779,9.120426 -6.419486,18.203418 -9.7014966,27.23786 H 26.834784 C 23.793035,24.334689 20.318683,14.687631 17.059615,5.998476 Z"
           style="font-size:143.284px;line-height:1.25;font-family:sans-serif;fill:url(#linearGradient11666);fill-opacity:1;stroke-width:0.26198"
           id="path11660" />
      </g>
    </clipPath>
    <linearGradient
       xlink:href="#linearGradient4766"
       id="linearGradient11664"
       gradientUnits="userSpaceOnUse"
       x1="29.28561"
       y1="22.867216"
       x2="137.68571"
       y2="22.867216" />
    <linearGradient
       xlink:href="#linearGradient11077"
       id="linearGradient11666"
       gradientUnits="userSpaceOnUse"
       gradientTransform="matrix(1.3872537,0,0,1.3872537,-9.8831538,-7.4869026)"
       x1="8.1615458"
       y1="19.333324"
       x2="65.445366"
       y2="48.893536" />
    <linearGradient
       xlink:href="#linearGradient4766"
       id="linearGradient24337"
       x1="43.057087"
       y1="22.75565"
       x2="145.96751"
       y2="24.827213"
       gradientUnits="userSpaceOnUse"
       gradientTransform="matrix(1.0961681,0,0,1.0961681,-8.513953,-2.1883671)" />
    <filter
       style="color-interpolation-filters:sRGB;"
       id="filter25249"
       x="-0.42397307"
       y="-0.37297478"
       width="1.9842392"
       height="1.7552031">
      <feFlood
         flood-opacity="0.101961"
         flood-color="rgb(0,0,0)"
         result="flood"
         id="feFlood25239" />
      <feComposite
         in="flood"
         in2="SourceGraphic"
         operator="in"
         result="composite1"
         id="feComposite25241" />
      <feGaussianBlur
         in="composite1"
         stdDeviation="4.8368"
         result="blur"
         id="feGaussianBlur25243" />
      <feOffset
         dx="3.8"
         dy="0.224972"
         result="offset"
         id="feOffset25245" />
      <feComposite
         in="SourceGraphic"
         in2="offset"
         operator="over"
         result="composite2"
         id="feComposite25247" />
    </filter>
  </defs>
  <path
     id="path12330"
     clip-path="none"
     style="fill:#ff0039;fill-opacity:0.87058824;stroke:#ff0039;stroke-width:0.256;stroke-miterlimit:4;stroke-dasharray:none;stroke-opacity:0.87058824;filter:url(#filter25249)"
     d="m 18.996094,3.5996094 c -0.03751,2.117e-4 -0.0625,0.00195 -0.0625,0.00195 H 18.5 c 0.139006,0.2657744 0.289305,0.525415 0.396484,0.8085937 -0.346706,-0.1538735 -0.672058,-0.4422583 -0.96875,-0.8085937 h -2.642655 c 1.343037,0.6185166 3.707086,1.3763714 4.941483,2.2695313 -0.167171,-0.424052 -0.459768,-1.1784857 -0.58789,-1.5 -0.207466,-0.2350046 -0.380868,-0.4987206 -0.554688,-0.7636719 -0.03098,-0.00297 -0.06475,-0.00794 -0.08789,-0.00781 z M 6.5264157,3.6015594 C 8.0869821,3.6334514 18.31425,6.1553323 21.080078,8.455075 21.163038,8.524053 21.241811,8.5998818 21.324219,8.6699188 21.12337,8.1555561 20.978723,7.7919669 20.800781,7.3378906 18.563731,5.6779685 16.034995,4.3941549 13.404297,3.6015625 Z m 0.1337401,0.2929718 v 0.3164063 c 5.4051752,0.098304 10.7007322,2.137185 14.7304692,5.9707035 0.302363,0.287652 0.579503,0.592145 0.873047,0.884765 C 22.109253,10.66932 22.04586,10.515317 21.898438,10.136719 17.886647,6.4720746 12.972564,4.3060274 7.5097656,3.9296875 7.2239841,3.910028 6.9424201,3.9041075 6.6601558,3.8945312 Z m 0,1.0432688 v 0.7731375 c 2.2793325,0.077022 4.5747272,0.480159 6.7675782,1.2050781 h 0.91211 L 14.230469,7.203125 C 15.22351,7.5710212 16.188935,8.0031625 17.117188,8.5 17.165411,8.3650861 17.211489,8.2306356 17.259766,8.0957031 14.384565,6.6355252 11.193442,5.5040366 8.1328125,5.0588937 7.6488251,4.9884824 7.1562124,4.9519782 6.6601558,4.9378 Z m 0,1.5797781 v 0.3912844 c 0.4223482,0.00656 0.8693834,-0.00122 1.3105469,0.00715 H 13.538009 C 12.799218,6.775083 8.3729539,6.6523947 7.6660156,6.5820312 7.3298361,6.5485585 6.9945985,6.5335322 6.6601558,6.5175781 Z M 13.90625,8.046875 13.753906,8.4414062 c 0.985017,0.4183024 1.939281,0.9106433 2.863282,1.4667969 C 16.692941,9.6956205 16.76788,9.4841138 16.84375,9.2714844 15.891016,8.79158 14.901915,8.4035476 13.90625,8.046875 Z M 17.875,8.4277344 c 0.07626,0.2040888 0.153987,0.4159571 0.230469,0.6210937 1.936752,1.1679319 3.657634,2.6387459 5.068359,4.3691409 C 22.988603,12.94077 22.78222,12.407154 22.603516,11.947266 21.230149,10.54518 19.620636,9.3792923 17.875,8.4277344 Z m -4.357422,0.6308594 -0.123047,0.3222656 c 0.99978,0.3740418 1.975138,0.8281456 2.921875,1.3710936 0.04036,-0.113448 0.0807,-0.226382 0.121094,-0.339844 C 15.497587,9.8957532 14.523344,9.4394682 13.517578,9.0585938 Z m 5.021484,1.1621092 c 0.165287,0.445213 0.330128,0.886739 0.496094,1.335938 2.264144,1.757455 4.257224,3.908373 5.865235,6.3125 -0.376174,-0.971539 -0.731023,-1.882588 -1.097657,-2.828125 -1.32583,-1.93231 -3.171354,-3.538001 -5.263672,-4.820313 z m -5.583984,0.308594 -0.138672,0.357422 c 1.016925,0.370856 2.01592,0.80333 2.970703,1.357422 0.04445,-0.125239 0.09028,-0.249745 0.134766,-0.375 -0.948975,-0.522678 -1.941766,-0.969686 -2.966797,-1.339844 z m -0.341797,0.888672 -0.152343,0.398437 c 1.026525,0.396994 2.029805,0.862779 2.964843,1.447266 0.05057,-0.142654 0.101741,-0.285058 0.152344,-0.427734 -0.942258,-0.558728 -1.93625,-1.040099 -2.964844,-1.417969 z m 6.6875,0.853515 c 0.10403,0.282289 0.206359,0.552372 0.310547,0.835938 0.07239,0.06333 0.146867,0.12093 0.21875,0.185547 1.514406,1.361234 3.310789,3.152692 3.900391,5.15625 l -0.935547,0.3125 c -0.395688,-1.344615 -1.404259,-2.473868 -2.392578,-3.476563 0.167894,0.460443 0.336099,0.922322 0.503906,1.384766 0.178924,0.227209 0.362819,0.450852 0.529297,0.6875 0.504016,0.716315 1.043791,1.345749 0.447265,2.001953 0.144145,0.401053 0.2841,0.799799 0.427735,1.201172 1.535975,0.25806 3.017913,0.904803 4.447265,2.105469 -0.121421,-0.314205 -0.115163,-0.294774 -0.238281,-0.613282 -0.289453,-0.160232 -0.546659,-0.407098 -0.759765,-0.796875 0.151184,-0.02848 0.288149,-0.02466 0.435546,-0.04492 -0.02352,-0.06083 -0.04676,-0.11682 -0.07031,-0.177735 -0.683076,-0.01 -1.344782,-0.075 -1.925781,-0.400391 0.260851,-0.19513 0.523456,-0.349814 0.787109,-0.488281 -0.963354,0.156424 -1.90425,0.213512 -2.814453,-0.134765 v -0.3125 c 0.996567,-0.552638 1.992429,-0.931995 2.984375,-1.166016 -0.07258,-0.18751 -0.138451,-0.357702 -0.210938,-0.544922 L 24.199221,18.13672 C 23.589965,16.224878 21.791399,14.335366 20.29883,13.056642 19.979444,12.783008 19.638394,12.528739 19.300783,12.271485 Z m 5.685547,7.873047 c 0.245805,-0.03991 0.4936,-0.08652 0.742188,-0.134765 -0.02024,-0.05231 -0.03835,-0.100006 -0.05859,-0.152344 -0.228342,0.08035 -0.456821,0.168011 -0.683594,0.287109 z m -12.875,-7.416015 -0.115234,0.298828 c 1.040624,0.404003 2.033942,0.922839 2.964844,1.548828 0.04608,-0.130168 0.09256,-0.260439 0.138671,-0.390625 -0.945651,-0.609526 -1.945674,-1.093634 -2.988281,-1.457031 z m -0.496094,1.294922 -0.148437,0.384765 c 1.075671,0.344379 2.089995,0.845268 3.017578,1.511719 0.04458,-0.126022 0.08822,-0.252867 0.132813,-0.378906 -0.935443,-0.65029 -1.943362,-1.154116 -3.001954,-1.517578 z m -0.458984,1.195312 -0.154297,0.400391 c 1.078335,0.396469 2.093207,0.957369 3.007813,1.636718 0.06504,-0.183908 0.130255,-0.368787 0.195312,-0.552734 -0.0484,-0.03574 -0.09561,-0.08112 -0.144531,-0.113281 -0.886488,-0.582868 -1.87385,-1.028042 -2.904297,-1.371094 z m -0.554688,1.445312 -0.1875,0.488282 c 1.11472,0.29074 2.173779,0.747817 3.13086,1.414062 0.05193,-0.146822 0.104316,-0.294559 0.15625,-0.441406 -0.974121,-0.630203 -2.001726,-1.128615 -3.09961,-1.460938 z m -0.52539,1.371094 -0.169922,0.441406 c 1.130701,0.339907 2.176035,0.863469 3.121094,1.544922 0.04564,-0.128947 0.09108,-0.257752 0.136718,-0.386718 -0.170008,-0.142018 -0.340043,-0.290193 -0.507812,-0.394532 -0.816266,-0.507794 -1.682855,-0.914301 -2.580078,-1.205078 z m -0.3359376,0.875 -0.1484375,0.386719 c 1.1163751,0.355302 2.1759761,0.905197 3.1171871,1.623047 0.04174,-0.117837 0.08327,-0.235663 0.125,-0.353516 -0.884453,-0.717285 -1.918371,-1.278498 -3.0937496,-1.65625 z m -0.4375,1.138672 -0.1445313,0.38086 c 0.2804474,0.0854 0.5572439,0.153389 0.8476559,0.27539 0.802216,0.336965 1.562042,0.852366 2.251953,1.484375 0.06283,-0.17716 0.126645,-0.354053 0.189454,-0.53125 C 11.815298,21.14737 11.105582,20.71509 10.316406,20.392578 9.981832,20.25584 9.6434446,20.144901 9.3027344,20.048828 Z m -0.4042969,1.058594 -0.1894531,0.49414 c 1.1555811,0.303114 2.2484676,0.861654 3.1542966,1.699219 0.05939,-0.167181 0.11838,-0.334738 0.177735,-0.501953 -0.908764,-0.815422 -1.983932,-1.385429 -3.1425785,-1.691406 z m 13.9082035,0.847656 c 0.02643,0.07423 0.05172,0.148431 0.07813,0.222656 2.009695,0.617819 3.852828,1.850847 5.052734,3.544922 C 27.823456,25.4272 27.801859,25.374684 27.683594,25.068359 26.413209,23.568278 24.740542,22.485022 22.806641,21.955078 Z M 8.5566406,22 8.3730469,22.476562 c 1.1511704,0.292269 2.2380281,0.90038 3.1210941,1.863282 0.07478,-0.210156 0.149889,-0.42065 0.224609,-0.63086 C 11.248438,23.254478 10.688502,22.845508 10.005859,22.503906 9.5580187,22.279822 9.0682442,22.11218 8.5566406,22 Z m 14.6875004,1.191406 c 0.06969,0.196647 0.139513,0.393368 0.208984,0.589844 0.902875,0.322063 1.778748,0.807024 2.615234,1.560547 1.047406,0.943522 1.888205,2.22528 2.341797,3.558594 0.227108,0.667125 0.5,1.428933 -0.3125,1.714843 -0.202618,-2.306223 -2.034884,-4.376386 -4.189453,-5.552734 0.07796,0.221579 0.158713,0.444827 0.236328,0.666016 1.728306,1.038016 3.094148,2.721085 3.798828,4.886718 l -0.9375,0.3125 c -0.540344,-1.582748 -1.327186,-2.76791 -2.308593,-3.605468 0.04159,0.119305 0.08158,0.236334 0.123046,0.355468 0.927811,0.779929 1.584502,1.846515 1.875,3.25 l -0.15625,0.15625 h -0.3125 c -0.185815,-0.416615 -0.395351,-0.788964 -0.61914,-1.134765 0.191396,0.555407 0.392148,1.126146 0.580078,1.675781 1.016095,-0.342201 2.075031,-0.556165 3.158203,-0.650391 0.143203,-0.01244 0.402727,0.05782 0.681641,0.164063 -0.05403,-0.140182 -0.165815,-0.43031 -0.226563,-0.587891 -0.250658,-0.01949 -0.507455,-0.01111 -0.765625,0.06445 0.115668,-0.324638 0.294967,-0.561472 0.496094,-0.759765 -0.06548,-0.169841 -0.14584,-0.380444 -0.216797,-0.564453 0.0089,0.07811 0.02481,0.153525 0.03125,0.232422 -0.631716,-0.474022 -0.787338,-1.50555 -1.189453,-2.183594 -0.76789,-1.2951 -1.908529,-2.528215 -3.177734,-3.345703 -0.537042,-0.345985 -1.123867,-0.606078 -1.734375,-0.802735 z m -15.1933598,0.125 -0.1679687,0.435547 c 0.8938078,0.176164 1.7518764,0.554828 2.4648435,1.210938 0.247746,0.227991 0.4607,0.487068 0.65625,0.757812 0.0464,-0.130024 0.09231,-0.26058 0.138672,-0.390625 C 10.808949,24.836461 10.351309,24.379714 9.6933594,23.982422 9.1532866,23.656321 8.6014176,23.444773 8.0507812,23.316406 Z M 7.609375,24.466797 7.46875,24.832031 c 0.7611542,0.135191 1.5217911,0.52441 2.2070312,1.261719 0.3369868,0.362599 0.5730908,0.778816 0.7539068,1.224609 0.06814,-0.190239 0.137017,-0.380027 0.205078,-0.570312 C 10.478457,26.429515 10.276414,26.110998 9.9765625,25.787109 9.2775561,25.032108 8.4522858,24.612633 7.609375,24.466797 Z M 7.1875,25.566406 7.0839844,25.837891 c 0.4597024,0.04436 0.9229572,0.197304 1.3554687,0.511718 0.559084,0.406483 2.0153029,2.51118 1.0117188,3.146485 C 9.1358589,29.695757 8.9794837,29.273662 8.9335938,29.046875 8.7028511,27.905898 8.1548756,26.638994 6.7382812,26.736328 l -0.1855468,0.486328 c 0.5886026,-0.110719 1.2355142,0.05163 1.6289062,0.757813 0.214494,0.384961 0.2437839,0.801524 0.2636719,1.230469 L 7.5097656,29.056641 C 7.4259895,27.949417 6.6174743,27.749677 6.1796875,28.195312 l -0.2714844,0.705079 c -0.00471,0.143425 1.077e-4,0.294036 0.041016,0.466797 C 5.8805938,29.330249 5.8330408,29.289127 5.7753906,29.25 L 5.4277344,30.15625 C 6.0598687,29.643166 6.9588198,29.396642 7.8203125,29.583984 8.3992064,29.709868 8.8946231,30.01318 9.3183594,30.408203 9.5079655,29.883754 9.6959835,29.358792 9.8847656,28.833984 9.8387138,28.084522 9.8118321,27.263845 9.3457031,26.71875 8.7598063,26.03362 7.9828487,25.67545 7.1875,25.566406 Z m -0.5800781,2.736328 c 0.2739164,-0.0275 0.5137237,0.277 0.5898437,0.753907 l -1.0917968,-0.3125 C 6.2666486,28.455423 6.443072,28.319233 6.6074219,28.302734 Z m 0.6230469,3.228516 c -0.9977074,9.75e-4 -2.0595349,0.374212 -2.5292969,0.957031 -0.034043,-0.106135 -0.030781,-0.205585 -0.048828,-0.308593 L 4.390625,32.863281 c 0.1130794,0.178997 0.218846,0.364964 0.3105469,0.560547 -0.1599025,-0.0475 -0.3116745,-0.107015 -0.4609375,-0.171875 l -0.15625,0.40625 c 0.2968217,0.166087 0.6021461,0.319249 0.9296875,0.427735 1.0922016,0.361693 2.0708605,0.19369 2.8964843,0.980468 h 1.5390626 c 0.4623527,-0.150783 0.9137582,-0.328693 1.3359372,-0.550781 l 0.138672,0.550781 h 0.402344 c -3.54e-4,-0.02943 0.0094,-0.05391 0.0078,-0.08398 -0.152094,-2.911832 -3.1035805,0.04152 -3.6230345,-1.10352 C 7.2296415,32.817933 8.7760914,32.785101 9.3808594,32.798828 9.1620589,31.90015 8.2281761,31.530275 7.2304688,31.53125 Z m 3.1152342,0.222656 c 0.166283,0.29446 0.316271,0.594365 0.439453,0.888672 h 0.15625 l -0.177734,-0.888672 z m 1.371094,0 c 0.184948,0.275555 0.292973,0.616942 0.316406,1.044922 1.70448,0.344797 0.976343,1.367597 0.925781,2.267578 h 0.472657 c 0.0163,-0.144916 0.05784,-0.29561 0.109375,-0.396484 0.473189,-0.926205 1.180376,-1.666938 1.578125,-2.650391 0.03539,-0.0875 0.0594,-0.177446 0.0918,-0.265625 H 15.06055 c -0.292378,0.71312 -0.710841,1.386923 -1.3125,1.980469 -0.02408,-0.708457 0.129122,-1.346731 0.316406,-1.980469 h -0.271484 c -0.260291,0.380039 -0.624738,0.651044 -1.136719,0.734375 0.09997,-0.240445 0.172497,-0.489115 0.257812,-0.734375 h -0.234374 c -0.01005,0.03744 -0.01318,0.07181 -0.02344,0.109375 H 12.5 c -0.01168,-0.0359 -0.01441,-0.07335 -0.02539,-0.109375 z m 3.957031,0 c -0.203601,0.667784 -0.02374,1.333809 -0.353516,1.980469 -0.186505,0.365698 -0.511634,0.942571 -0.904296,1.332031 h 0.429687 l 0.929688,-1.486328 h 0.3125 c 0.09202,0.497646 -0.954295,1.486328 -0.402344,1.486328 h 1.346745 c 0.342815,-0.462411 -0.527997,-0.866793 -0.0089,-1.019531 0.03135,-0.964268 1.091504,-1.961891 1.597656,-0.617187 0.236126,0.6273 0.03426,1.180777 -0.365235,1.636718 h 2.483003 c 0.399771,-0.572673 -1.454945,-1.2802 -1.803315,-2.09375 -0.544213,-1.270924 -1.954644,-0.346821 -2.378906,0.451172 h -0.15625 c -0.276662,-0.67909 1.039878,-1.225306 1.110125,-1.669922 z m 3.763088,0 c -0.460374,0.842911 1.922359,1.876777 2.330662,2.761719 0.08693,0.188432 0.205766,0.372622 0.341797,0.550781 h 2.401569 c 1.275064,-0.854387 1.976919,-2.135969 2.280072,0 h 1.304269 c 0.0615,-0.812254 -1.396112,-1.609125 -2.335519,-1.798828 1.201667,-1.577267 3.326325,0.120575 2.96289,1.714844 0.675193,-0.366733 1.646064,-0.800423 2.238282,-1.423828 -0.01992,-0.0517 -0.17294,-0.449376 -0.199219,-0.517578 l -1.416016,0.849609 -0.779297,-0.935547 h 2.16211 c -0.01702,-0.04418 -0.1056,-0.271921 -0.125,-0.322266 -1.080468,0.32101 -2.81684,-0.738337 -3.751954,-0.539062 -1.30742,0.27858 -2.667143,2.859459 -4.175781,2.591797 -1.28574,-0.228046 0.794203,-1.712565 1.054688,-1.884766 0.669613,-0.442788 1.387835,-0.772735 2.125,-1.046875 h -1.828125 c -0.172662,0.23902 -0.445647,0.343747 -0.714844,0 z m 3.252537,0.06445 c 0.202844,0.03671 0.44803,0.193953 0.730469,0.513672 v 0.15625 l -1.404297,1.091797 c -0.175477,-0.899961 0.0653,-1.871845 0.673828,-1.761719 z M 8.4453125,32.019531 c -0.621372,0.936658 -2.1742936,0.76698 -3.1191406,0.46875 v -0.3125 z m -3.2753906,0.935547 2.1835937,0.15625 -0.15625,0.779297 -2.3398437,-0.310547 z m 4.6777343,1.035156 c 0.1877228,-0.01174 0.3945708,0.0072 0.6249998,0.05664 l -1.8710935,0.935547 c 0.2972078,-0.640607 0.6829241,-0.956976 1.2460937,-0.992187 z m 21.3730468,0.240235 c -0.225325,0.2598 -0.440036,0.536344 -0.634765,0.835937 h 0.378906 c 0.11985,-0.189398 0.246974,-0.358135 0.384765,-0.498047 -0.0044,-0.01153 -0.121539,-0.318766 -0.128906,-0.33789 z M 3.8027344,34.394531 3.5820312,34.970703 c 0.077674,0.0316 0.1531837,0.06687 0.2324219,0.0957 H 5.8339844 C 5.1086964,34.923302 4.430214,34.699592 3.8027344,34.394531 Z" />
  <text
     xml:space="preserve"
     style="font-size:28.6094px;line-height:1.25;font-family:Calibri;-inkscape-font-specification:Calibri;opacity:0.869012;fill:#ff003a;fill-opacity:1;stroke-width:0.447022"
     x="36.448738"
     y="29.963888"
     id="text13045"><tspan
       id="tspan13043"
       x="36.448738"
       y="29.963888"
       style="font-style:normal;font-variant:normal;font-weight:normal;font-stretch:normal;font-family:Bahnschrift;-inkscape-font-specification:Bahnschrift;fill:#ff003a;fill-opacity:1;stroke-width:0.447022">idclang</tspan></text>
</svg>
