<?xml version="1.0" encoding="UTF-8" standalone="no"?>
<!-- Created with Inkscape (http://www.inkscape.org/) -->

<svg
   version="1.1"
   id="svg2"
   xml:space="preserve"
   width="600"
   height="535"
   viewBox="0 0 600 535"
   xmlns="http://www.w3.org/2000/svg"
   xmlns:svg="http://www.w3.org/2000/svg"><defs
     id="defs6"><clipPath
       clipPathUnits="userSpaceOnUse"
       id="clipPath80"><path
         d="M 0,500 H 500 V 0 H 0 Z"
         id="path78" /></clipPath><clipPath
       clipPathUnits="userSpaceOnUse"
       id="clipPath96"><path
         d="M 0,500 H 500 V 0 H 0 Z"
         id="path94" /></clipPath><clipPath
       clipPathUnits="userSpaceOnUse"
       id="clipPath108"><path
         d="M 209.899,437.857 H 465.378 V 150.658 H 209.899 Z"
         id="path106" /></clipPath><clipPath
       clipPathUnits="userSpaceOnUse"
       id="clipPath128"><path
         d="m 222.964,286.694 h 23.307 v -54.856 h -23.307 z"
         id="path126" /></clipPath><clipPath
       clipPathUnits="userSpaceOnUse"
       id="clipPath148"><path
         d="m 358.805,231.005 h 27.275 v -28.35 h -27.275 z"
         id="path146" /></clipPath><clipPath
       clipPathUnits="userSpaceOnUse"
       id="clipPath168"><path
         d="m 306.615,438.481 h 49.834 V 387.41 h -49.834 z"
         id="path166" /></clipPath><clipPath
       clipPathUnits="userSpaceOnUse"
       id="clipPath192"><path
         d="m 276.11,444.927 h 45.686 V 377.813 H 276.11 Z"
         id="path190" /></clipPath><clipPath
       clipPathUnits="userSpaceOnUse"
       id="clipPath2956"><path
         d="m 267.038,264.598 h 66.118 v -21.831 h -66.118 z"
         id="path2954" /></clipPath><clipPath
       clipPathUnits="userSpaceOnUse"
       id="clipPath2984"><path
         d="M 0,500 H 500 V 0 H 0 Z"
         id="path2982" /></clipPath><clipPath
       clipPathUnits="userSpaceOnUse"
       id="clipPath3020"><path
         d="m 225.75,222.9 h 44.43 v -80.7 h -44.43 z"
         id="path3018" /></clipPath><clipPath
       clipPathUnits="userSpaceOnUse"
       id="clipPath3216"><path
         d="M 0,500 H 500 V 0 H 0 Z"
         id="path3214" /></clipPath><clipPath
       clipPathUnits="userSpaceOnUse"
       id="clipPath3234"><path
         d="M 0,500 H 500 V 0 H 0 Z"
         id="path3232" /></clipPath><filter
       style="color-interpolation-filters:sRGB;"
       id="filter196020"
       x="-0.026694411"
       y="-0.031507121"
       width="1.0621273"
       height="1.0636249"><feFlood
         flood-opacity="0.101961"
         flood-color="rgb(0,0,0)"
         result="flood"
         id="feFlood196010" /><feComposite
         in="flood"
         in2="SourceGraphic"
         operator="out"
         result="composite1"
         id="feComposite196012" /><feGaussianBlur
         in="composite1"
         stdDeviation="4.8368"
         result="blur"
         id="feGaussianBlur196014" /><feOffset
         dx="3.8"
         dy="0.224972"
         result="offset"
         id="feOffset196016" /><feComposite
         in="offset"
         in2="SourceGraphic"
         operator="atop"
         result="composite2"
         id="feComposite196018" /></filter><filter
       style="color-interpolation-filters:sRGB;"
       id="filter196110"
       x="-0.32011132"
       y="-0.36179514"
       width="1.7450115"
       height="1.730602"><feFlood
         flood-opacity="0.101961"
         flood-color="rgb(0,0,0)"
         result="flood"
         id="feFlood196100" /><feComposite
         in="flood"
         in2="SourceGraphic"
         operator="in"
         result="composite1"
         id="feComposite196102" /><feGaussianBlur
         in="composite1"
         stdDeviation="4.8368"
         result="blur"
         id="feGaussianBlur196104" /><feOffset
         dx="3.8"
         dy="0.224972"
         result="offset"
         id="feOffset196106" /><feComposite
         in="SourceGraphic"
         in2="offset"
         operator="over"
         result="composite2"
         id="feComposite196108" /></filter><filter
       style="color-interpolation-filters:sRGB;"
       id="filter196200"
       x="-0.17224624"
       y="-0.27184221"
       width="1.4008775"
       height="1.5489528"><feFlood
         flood-opacity="0.101961"
         flood-color="rgb(0,0,0)"
         result="flood"
         id="feFlood196190" /><feComposite
         in="flood"
         in2="SourceGraphic"
         operator="in"
         result="composite1"
         id="feComposite196192" /><feGaussianBlur
         in="composite1"
         stdDeviation="4.8368"
         result="blur"
         id="feGaussianBlur196194" /><feOffset
         dx="3.8"
         dy="0.224972"
         result="offset"
         id="feOffset196196" /><feComposite
         in="SourceGraphic"
         in2="offset"
         operator="over"
         result="composite2"
         id="feComposite196198" /></filter><filter
       style="color-interpolation-filters:sRGB;"
       id="filter198163"
       x="-0.28070494"
       y="-0.28070494"
       width="1.653299"
       height="1.56685"><feFlood
         flood-opacity="0.101961"
         flood-color="rgb(0,0,0)"
         result="flood"
         id="feFlood198153" /><feComposite
         in="flood"
         in2="SourceGraphic"
         operator="out"
         result="composite1"
         id="feComposite198155" /><feGaussianBlur
         in="composite1"
         stdDeviation="4.8368"
         result="blur"
         id="feGaussianBlur198157" /><feOffset
         dx="3.8"
         dy="0.224972"
         result="offset"
         id="feOffset198159" /><feComposite
         in="offset"
         in2="SourceGraphic"
         operator="atop"
         result="composite2"
         id="feComposite198161" /></filter><filter
       style="color-interpolation-filters:sRGB;"
       id="filter198175"
       x="-0.41178596"
       y="-0.41178596"
       width="1.9583706"
       height="1.8315524"><feFlood
         flood-opacity="0.101961"
         flood-color="rgb(0,0,0)"
         result="flood"
         id="feFlood198165" /><feComposite
         in="flood"
         in2="SourceGraphic"
         operator="out"
         result="composite1"
         id="feComposite198167" /><feGaussianBlur
         in="composite1"
         stdDeviation="4.8368"
         result="blur"
         id="feGaussianBlur198169" /><feOffset
         dx="3.8"
         dy="0.224972"
         result="offset"
         id="feOffset198171" /><feComposite
         in="offset"
         in2="SourceGraphic"
         operator="atop"
         result="composite2"
         id="feComposite198173" /></filter><filter
       style="color-interpolation-filters:sRGB;"
       id="filter198289"
       x="-0.82357192"
       y="-0.82357192"
       width="2.9167413"
       height="2.6631049"><feFlood
         flood-opacity="0.101961"
         flood-color="rgb(0,0,0)"
         result="flood"
         id="feFlood198279" /><feComposite
         in="flood"
         in2="SourceGraphic"
         operator="out"
         result="composite1"
         id="feComposite198281" /><feGaussianBlur
         in="composite1"
         stdDeviation="4.8368"
         result="blur"
         id="feGaussianBlur198283" /><feOffset
         dx="3.8"
         dy="0.224972"
         result="offset"
         id="feOffset198285" /><feComposite
         in="offset"
         in2="SourceGraphic"
         operator="atop"
         result="fbSourceGraphic"
         id="feComposite198287" /><feColorMatrix
         result="fbSourceGraphicAlpha"
         in="fbSourceGraphic"
         values="0 0 0 -1 0 0 0 0 -1 0 0 0 0 -1 0 0 0 0 1 0"
         id="feColorMatrix198321" /><feFlood
         id="feFlood198323"
         flood-opacity="0.101961"
         flood-color="rgb(0,0,0)"
         result="flood"
         in="fbSourceGraphic" /><feComposite
         in2="fbSourceGraphic"
         id="feComposite198325"
         in="flood"
         operator="out"
         result="composite1" /><feGaussianBlur
         id="feGaussianBlur198327"
         in="composite1"
         stdDeviation="4.8368"
         result="blur" /><feOffset
         id="feOffset198329"
         dx="3.8"
         dy="0.224972"
         result="offset" /><feComposite
         in2="fbSourceGraphic"
         id="feComposite198331"
         in="offset"
         operator="atop"
         result="composite2" /></filter><filter
       style="color-interpolation-filters:sRGB;"
       id="filter198301"
       x="-0.5721751"
       y="-0.5721751"
       width="2.3316525"
       height="2.1554391"><feFlood
         flood-opacity="0.101961"
         flood-color="rgb(0,0,0)"
         result="flood"
         id="feFlood198291" /><feComposite
         in="flood"
         in2="SourceGraphic"
         operator="out"
         result="composite1"
         id="feComposite198293" /><feGaussianBlur
         in="composite1"
         stdDeviation="4.8368"
         result="blur"
         id="feGaussianBlur198295" /><feOffset
         dx="3.8"
         dy="0.224972"
         result="offset"
         id="feOffset198297" /><feComposite
         in="offset"
         in2="SourceGraphic"
         operator="atop"
         result="fbSourceGraphic"
         id="feComposite198299" /><feColorMatrix
         result="fbSourceGraphicAlpha"
         in="fbSourceGraphic"
         values="0 0 0 -1 0 0 0 0 -1 0 0 0 0 -1 0 0 0 0 1 0"
         id="feColorMatrix198333" /><feFlood
         id="feFlood198335"
         flood-opacity="0.101961"
         flood-color="rgb(0,0,0)"
         result="flood"
         in="fbSourceGraphic" /><feComposite
         in2="fbSourceGraphic"
         id="feComposite198337"
         in="flood"
         operator="out"
         result="composite1" /><feGaussianBlur
         id="feGaussianBlur198339"
         in="composite1"
         stdDeviation="4.8368"
         result="blur" /><feOffset
         id="feOffset198341"
         dx="3.8"
         dy="0.224972"
         result="offset" /><feComposite
         in2="fbSourceGraphic"
         id="feComposite198343"
         in="offset"
         operator="atop"
         result="composite2" /></filter><filter
       style="color-interpolation-filters:sRGB;"
       id="filter216551"
       x="-0.091732639"
       y="-0.19384894"
       width="1.2134941"
       height="1.3914547"><feFlood
         flood-opacity="0.101961"
         flood-color="rgb(0,0,0)"
         result="flood"
         id="feFlood216541" /><feComposite
         in="flood"
         in2="SourceGraphic"
         operator="out"
         result="composite1"
         id="feComposite216543" /><feGaussianBlur
         in="composite1"
         stdDeviation="4.8368"
         result="blur"
         id="feGaussianBlur216545" /><feOffset
         dx="3.8"
         dy="0.224972"
         result="offset"
         id="feOffset216547" /><feComposite
         in="offset"
         in2="SourceGraphic"
         operator="atop"
         result="composite2"
         id="feComposite216549" /></filter><filter
       style="color-interpolation-filters:sRGB;"
       id="filter216641"
       x="-0.091732639"
       y="-0.19384894"
       width="1.2134941"
       height="1.3914547"><feFlood
         flood-opacity="0.101961"
         flood-color="rgb(0,0,0)"
         result="flood"
         id="feFlood216631" /><feComposite
         in="flood"
         in2="SourceGraphic"
         operator="out"
         result="composite1"
         id="feComposite216633" /><feGaussianBlur
         in="composite1"
         stdDeviation="4.8368"
         result="blur"
         id="feGaussianBlur216635" /><feOffset
         dx="3.8"
         dy="0.224972"
         result="offset"
         id="feOffset216637" /><feComposite
         in="offset"
         in2="SourceGraphic"
         operator="atop"
         result="composite2"
         id="feComposite216639" /></filter></defs><g
     id="g227785"><g
       id="g216709"
       style="filter:url(#filter216641)"
       transform="translate(234.67674,186.98123)"><g
         id="g216671"
         style="fill:#c8c8c8;fill-opacity:1"
         transform="matrix(0.77619601,0,0,0.77619601,-522.07189,73.77602)"><circle
           style="fill:#c8c8c8;fill-opacity:1;stroke:none;stroke-width:0.6;stroke-miterlimit:4;stroke-dasharray:none;stroke-opacity:1;stop-color:#000000"
           id="circle216661"
           cx="767.23108"
           cy="175.76241"
           r="8.2011833" /><circle
           style="fill:#c8c8c8;fill-opacity:1;stroke:none;stroke-width:0.6;stroke-miterlimit:4;stroke-dasharray:none;stroke-opacity:1;stop-color:#000000"
           id="circle216663"
           cx="795.09479"
           cy="175.76241"
           r="8.2011833" /><circle
           style="fill:#c8c8c8;fill-opacity:1;stroke:none;stroke-width:0.6;stroke-miterlimit:4;stroke-dasharray:none;stroke-opacity:1;stop-color:#000000"
           id="circle216665"
           cx="824.03351"
           cy="175.76241"
           r="8.2011833" /><circle
           style="fill:#c8c8c8;fill-opacity:1;stroke:none;stroke-width:0.6;stroke-miterlimit:4;stroke-dasharray:none;stroke-opacity:1;stop-color:#000000"
           id="circle216667"
           cx="847.75391"
           cy="175.76241"
           r="8.2011833" /><circle
           style="fill:#c8c8c8;fill-opacity:1;stroke:none;stroke-width:0.6;stroke-miterlimit:4;stroke-dasharray:none;stroke-opacity:1;stop-color:#000000"
           id="circle216669"
           cx="873.30951"
           cy="175.76241"
           r="8.2011833" /></g><g
         id="g216683"
         transform="matrix(0.77619601,0,0,0.77619601,-504.4537,89.578505)"
         style="fill:#c8c8c8;fill-opacity:1"><circle
           style="fill:#c8c8c8;fill-opacity:1;stroke:none;stroke-width:0.6;stroke-miterlimit:4;stroke-dasharray:none;stroke-opacity:1;stop-color:#000000"
           id="circle216673"
           cx="767.23108"
           cy="175.76241"
           r="8.2011833" /><circle
           style="fill:#c8c8c8;fill-opacity:1;stroke:none;stroke-width:0.6;stroke-miterlimit:4;stroke-dasharray:none;stroke-opacity:1;stop-color:#000000"
           id="circle216675"
           cx="795.09479"
           cy="175.76241"
           r="8.2011833" /><circle
           style="fill:#c8c8c8;fill-opacity:1;stroke:none;stroke-width:0.6;stroke-miterlimit:4;stroke-dasharray:none;stroke-opacity:1;stop-color:#000000"
           id="circle216677"
           cx="824.03351"
           cy="175.76241"
           r="8.2011833" /><circle
           style="fill:#c8c8c8;fill-opacity:1;stroke:none;stroke-width:0.6;stroke-miterlimit:4;stroke-dasharray:none;stroke-opacity:1;stop-color:#000000"
           id="circle216679"
           cx="847.75391"
           cy="175.76241"
           r="8.2011833" /><circle
           style="fill:#c8c8c8;fill-opacity:1;stroke:none;stroke-width:0.6;stroke-miterlimit:4;stroke-dasharray:none;stroke-opacity:1;stop-color:#000000"
           id="circle216681"
           cx="873.30951"
           cy="175.76241"
           r="8.2011833" /></g><g
         id="g216695"
         transform="matrix(0.77619601,0,0,0.77619601,-535.03617,105.4244)"
         style="fill:#c8c8c8;fill-opacity:1"><circle
           style="fill:#c8c8c8;fill-opacity:1;stroke:none;stroke-width:0.6;stroke-miterlimit:4;stroke-dasharray:none;stroke-opacity:1;stop-color:#000000"
           id="circle216685"
           cx="767.23108"
           cy="175.76241"
           r="8.2011833" /><circle
           style="fill:#c8c8c8;fill-opacity:1;stroke:none;stroke-width:0.6;stroke-miterlimit:4;stroke-dasharray:none;stroke-opacity:1;stop-color:#000000"
           id="circle216687"
           cx="795.09479"
           cy="175.76241"
           r="8.2011833" /><circle
           style="fill:#c8c8c8;fill-opacity:1;stroke:none;stroke-width:0.6;stroke-miterlimit:4;stroke-dasharray:none;stroke-opacity:1;stop-color:#000000"
           id="circle216689"
           cx="824.03351"
           cy="175.76241"
           r="8.2011833" /><circle
           style="fill:#c8c8c8;fill-opacity:1;stroke:none;stroke-width:0.6;stroke-miterlimit:4;stroke-dasharray:none;stroke-opacity:1;stop-color:#000000"
           id="circle216691"
           cx="847.75391"
           cy="175.76241"
           r="8.2011833" /><circle
           style="fill:#c8c8c8;fill-opacity:1;stroke:none;stroke-width:0.6;stroke-miterlimit:4;stroke-dasharray:none;stroke-opacity:1;stop-color:#000000"
           id="circle216693"
           cx="873.30951"
           cy="175.76241"
           r="8.2011833" /></g><g
         id="g216707"
         transform="matrix(0.77619601,0,0,0.77619601,-503.56013,120.9279)"
         style="fill:#c8c8c8;fill-opacity:1"><circle
           style="fill:#c8c8c8;fill-opacity:1;stroke:none;stroke-width:0.6;stroke-miterlimit:4;stroke-dasharray:none;stroke-opacity:1;stop-color:#000000"
           id="circle216697"
           cx="767.23108"
           cy="175.76241"
           r="8.2011833" /><circle
           style="fill:#c8c8c8;fill-opacity:1;stroke:none;stroke-width:0.6;stroke-miterlimit:4;stroke-dasharray:none;stroke-opacity:1;stop-color:#000000"
           id="circle216699"
           cx="795.09479"
           cy="175.76241"
           r="8.2011833" /><circle
           style="fill:#c8c8c8;fill-opacity:1;stroke:none;stroke-width:0.6;stroke-miterlimit:4;stroke-dasharray:none;stroke-opacity:1;stop-color:#000000"
           id="circle216701"
           cx="824.03351"
           cy="175.76241"
           r="8.2011833" /><circle
           style="fill:#c8c8c8;fill-opacity:1;stroke:none;stroke-width:0.6;stroke-miterlimit:4;stroke-dasharray:none;stroke-opacity:1;stop-color:#000000"
           id="circle216703"
           cx="847.75391"
           cy="175.76241"
           r="8.2011833" /><circle
           style="fill:#c8c8c8;fill-opacity:1;stroke:none;stroke-width:0.6;stroke-miterlimit:4;stroke-dasharray:none;stroke-opacity:1;stop-color:#000000"
           id="circle216705"
           cx="873.30951"
           cy="175.76241"
           r="8.2011833" /></g></g><g
       id="g216479"
       transform="translate(402.14123,-149.03491)"
       style="filter:url(#filter216551)"><g
         id="g216441"
         style="fill:#c8c8c8;fill-opacity:1"
         transform="matrix(0.77619601,0,0,0.77619601,-522.07189,73.77602)"><circle
           style="fill:#c8c8c8;fill-opacity:1;stroke:none;stroke-width:0.6;stroke-miterlimit:4;stroke-dasharray:none;stroke-opacity:1;stop-color:#000000"
           id="circle216431"
           cx="767.23108"
           cy="175.76241"
           r="8.2011833" /><circle
           style="fill:#c8c8c8;fill-opacity:1;stroke:none;stroke-width:0.6;stroke-miterlimit:4;stroke-dasharray:none;stroke-opacity:1;stop-color:#000000"
           id="circle216433"
           cx="795.09479"
           cy="175.76241"
           r="8.2011833" /><circle
           style="fill:#c8c8c8;fill-opacity:1;stroke:none;stroke-width:0.6;stroke-miterlimit:4;stroke-dasharray:none;stroke-opacity:1;stop-color:#000000"
           id="circle216435"
           cx="824.03351"
           cy="175.76241"
           r="8.2011833" /><circle
           style="fill:#c8c8c8;fill-opacity:1;stroke:none;stroke-width:0.6;stroke-miterlimit:4;stroke-dasharray:none;stroke-opacity:1;stop-color:#000000"
           id="circle216437"
           cx="847.75391"
           cy="175.76241"
           r="8.2011833" /><circle
           style="fill:#c8c8c8;fill-opacity:1;stroke:none;stroke-width:0.6;stroke-miterlimit:4;stroke-dasharray:none;stroke-opacity:1;stop-color:#000000"
           id="circle216439"
           cx="873.30951"
           cy="175.76241"
           r="8.2011833" /></g><g
         id="g216453"
         transform="matrix(0.77619601,0,0,0.77619601,-504.4537,89.578505)"
         style="fill:#c8c8c8;fill-opacity:1"><circle
           style="fill:#c8c8c8;fill-opacity:1;stroke:none;stroke-width:0.6;stroke-miterlimit:4;stroke-dasharray:none;stroke-opacity:1;stop-color:#000000"
           id="circle216443"
           cx="767.23108"
           cy="175.76241"
           r="8.2011833" /><circle
           style="fill:#c8c8c8;fill-opacity:1;stroke:none;stroke-width:0.6;stroke-miterlimit:4;stroke-dasharray:none;stroke-opacity:1;stop-color:#000000"
           id="circle216445"
           cx="795.09479"
           cy="175.76241"
           r="8.2011833" /><circle
           style="fill:#c8c8c8;fill-opacity:1;stroke:none;stroke-width:0.6;stroke-miterlimit:4;stroke-dasharray:none;stroke-opacity:1;stop-color:#000000"
           id="circle216447"
           cx="824.03351"
           cy="175.76241"
           r="8.2011833" /><circle
           style="fill:#c8c8c8;fill-opacity:1;stroke:none;stroke-width:0.6;stroke-miterlimit:4;stroke-dasharray:none;stroke-opacity:1;stop-color:#000000"
           id="circle216449"
           cx="847.75391"
           cy="175.76241"
           r="8.2011833" /><circle
           style="fill:#c8c8c8;fill-opacity:1;stroke:none;stroke-width:0.6;stroke-miterlimit:4;stroke-dasharray:none;stroke-opacity:1;stop-color:#000000"
           id="circle216451"
           cx="873.30951"
           cy="175.76241"
           r="8.2011833" /></g><g
         id="g216465"
         transform="matrix(0.77619601,0,0,0.77619601,-535.03617,105.4244)"
         style="fill:#c8c8c8;fill-opacity:1"><circle
           style="fill:#c8c8c8;fill-opacity:1;stroke:none;stroke-width:0.6;stroke-miterlimit:4;stroke-dasharray:none;stroke-opacity:1;stop-color:#000000"
           id="circle216455"
           cx="767.23108"
           cy="175.76241"
           r="8.2011833" /><circle
           style="fill:#c8c8c8;fill-opacity:1;stroke:none;stroke-width:0.6;stroke-miterlimit:4;stroke-dasharray:none;stroke-opacity:1;stop-color:#000000"
           id="circle216457"
           cx="795.09479"
           cy="175.76241"
           r="8.2011833" /><circle
           style="fill:#c8c8c8;fill-opacity:1;stroke:none;stroke-width:0.6;stroke-miterlimit:4;stroke-dasharray:none;stroke-opacity:1;stop-color:#000000"
           id="circle216459"
           cx="824.03351"
           cy="175.76241"
           r="8.2011833" /><circle
           style="fill:#c8c8c8;fill-opacity:1;stroke:none;stroke-width:0.6;stroke-miterlimit:4;stroke-dasharray:none;stroke-opacity:1;stop-color:#000000"
           id="circle216461"
           cx="847.75391"
           cy="175.76241"
           r="8.2011833" /><circle
           style="fill:#c8c8c8;fill-opacity:1;stroke:none;stroke-width:0.6;stroke-miterlimit:4;stroke-dasharray:none;stroke-opacity:1;stop-color:#000000"
           id="circle216463"
           cx="873.30951"
           cy="175.76241"
           r="8.2011833" /></g><g
         id="g216477"
         transform="matrix(0.77619601,0,0,0.77619601,-503.56013,120.9279)"
         style="fill:#c8c8c8;fill-opacity:1"><circle
           style="fill:#c8c8c8;fill-opacity:1;stroke:none;stroke-width:0.6;stroke-miterlimit:4;stroke-dasharray:none;stroke-opacity:1;stop-color:#000000"
           id="circle216467"
           cx="767.23108"
           cy="175.76241"
           r="8.2011833" /><circle
           style="fill:#c8c8c8;fill-opacity:1;stroke:none;stroke-width:0.6;stroke-miterlimit:4;stroke-dasharray:none;stroke-opacity:1;stop-color:#000000"
           id="circle216469"
           cx="795.09479"
           cy="175.76241"
           r="8.2011833" /><circle
           style="fill:#c8c8c8;fill-opacity:1;stroke:none;stroke-width:0.6;stroke-miterlimit:4;stroke-dasharray:none;stroke-opacity:1;stop-color:#000000"
           id="circle216471"
           cx="824.03351"
           cy="175.76241"
           r="8.2011833" /><circle
           style="fill:#c8c8c8;fill-opacity:1;stroke:none;stroke-width:0.6;stroke-miterlimit:4;stroke-dasharray:none;stroke-opacity:1;stop-color:#000000"
           id="circle216473"
           cx="847.75391"
           cy="175.76241"
           r="8.2011833" /><circle
           style="fill:#c8c8c8;fill-opacity:1;stroke:none;stroke-width:0.6;stroke-miterlimit:4;stroke-dasharray:none;stroke-opacity:1;stop-color:#000000"
           id="circle216475"
           cx="873.30951"
           cy="175.76241"
           r="8.2011833" /></g></g><text
       xml:space="preserve"
       style="font-size:53.2144px;line-height:1.25;font-family:Calibri;-inkscape-font-specification:Calibri;stroke-width:0.831476;fill:#676c53;fill-opacity:1"
       x="239.12206"
       y="60.018318"
       id="text217659"><tspan
         id="tspan217657"
         x="239.12206"
         y="60.018318"
         style="font-style:normal;font-variant:normal;font-weight:bold;font-stretch:normal;font-family:Calibri;-inkscape-font-specification:'Calibri Bold';stroke-width:0.831476;fill:#676c53;fill-opacity:1">എഴുത്ത്</tspan></text><path
       style="fill:#ffe480;fill-opacity:1;stroke-width:0.186109;stop-color:#000000;filter:url(#filter196020)"
       d="m 289.70685,202.12577 c 10.63377,-3.08843 21.67454,-5.14274 31.61313,-10.02535 4.96929,-2.44131 9.63517,-5.59846 13.39206,-9.66535 3.7569,-4.06689 6.57806,-9.07943 7.62298,-14.51652 0.88706,-4.61575 0.47258,-9.45872 -1.07031,-13.89848 -1.54289,-4.43976 -4.19984,-8.47251 -7.58567,-11.7326 -6.77162,-6.52019 -16.3349,-9.7788 -25.73487,-9.68677 -9.39998,0.092 -18.6085,3.35973 -26.53206,8.41789 -7.92356,5.05817 -14.6283,11.85077 -20.40804,19.26444 -11.55946,14.82736 -19.54906,32.14105 -30.70102,47.27728 -5.57598,7.56812 -11.98315,14.6141 -19.61998,20.0956 -7.63682,5.4815 -16.56983,9.35572 -25.93103,10.2136 -11.91983,1.09236 -24.1118,-2.86555 -33.51664,-10.26991 -9.40486,-7.40435 -16.0346,-18.10381 -19.10051,-29.67428 -3.06591,-11.57046 -2.64643,-23.95474 0.57284,-35.48348 3.21927,-11.52874 9.17871,-22.21129 16.79909,-31.44197 15.24076,-18.46135 36.67574,-30.84331 58.85816,-39.845679 22.18241,-9.00236 45.4618,-14.989213 67.99568,-23.071719 15.03236,-5.39184 29.74493,-11.720373 45.06144,-16.2424 15.3165,-4.522027 31.45113,-7.214253 47.28057,-5.099373 15.82944,2.11488 31.38645,9.460186 41.12088,22.120546 4.86723,6.330186 8.18773,13.89488 9.20911,21.814346 1.02136,7.919453 -0.30475,16.176629 -4.05996,23.223559 -5.57956,10.47045 -15.8469,17.48875 -23.59652,26.47235 -3.87482,4.4918 -7.18659,9.61953 -8.65695,15.36657 -0.73517,2.87352 -0.99727,5.88027 -0.63252,8.82383 0.36475,2.94357 1.36609,5.82201 3.02232,8.2826 2.52836,3.75625 6.54444,6.42334 10.92625,7.56434 4.3818,1.141 9.0954,0.79762 13.36706,-0.70408 4.27164,-1.50169 8.10698,-4.12969 11.26153,-7.3779 3.15455,-3.24823 5.64377,-7.10606 7.57083,-11.20344 3.85409,-8.19476 5.45873,-17.23702 6.98876,-26.16266 1.53004,-8.92565 3.05734,-17.97157 6.77642,-26.22849 4.86847,-10.808719 13.45224,-19.848999 23.84714,-25.547825 10.3949,-5.698814 22.5303,-8.073014 34.33865,-7.027294 11.80833,1.045734 23.25752,5.467814 32.89296,12.373507 9.63544,6.905706 17.45822,16.255092 22.84525,26.814932 10.77407,21.11969 11.47444,46.63431 4.1554,69.18544 -7.31904,22.55112 -22.19392,42.20954 -40.37956,57.42152 -29.88688,24.99986 -68.10716,38.35376 -98.15508,63.15984 -22.6922,18.73356 -39.79265,43.22003 -59.89401,64.70995 -10.05069,10.74498 -20.94709,20.81686 -33.33324,28.75751 -12.38613,7.94065 -26.34704,13.71153 -40.96658,15.36664 -13.10183,1.48328 -26.54532,-0.39303 -38.81862,-5.21217 -12.27329,-4.81915 -23.36454,-12.55635 -32.28194,-22.26912 -17.83477,-19.42556 -26.47997,-46.57648 -24.73689,-72.88985 1.74306,-26.31338 13.49951,-51.58143 31.34151,-71.00038 17.84199,-19.41893 41.52742,-33.09402 66.85198,-40.4492 z"
       id="path18759" /><path
       d="m 171.52827,147.53063 q 0.17067,-3.49867 -1.45067,-3.49867 -2.21866,0 -2.64533,4.352 -0.256,4.096 1.536,4.096 2.21867,0 2.56,-4.94933 z m 22.95467,5.632 q -0.68267,9.216 -6.656,14.50667 -5.20534,4.608 -12.37334,4.608 -4.26666,0 -7.59466,-1.19467 -3.328,-1.28 -5.54667,-3.49867 -2.13333,-2.304 -3.24267,-5.46133 -1.024,-3.24267 -0.68266,-7.168 0.59733,-7.936 4.352,-11.69067 3.072,-3.072 7.59466,-3.072 3.66934,0 5.46134,2.048 1.87733,1.96267 1.62133,5.20534 -0.256,4.096 -2.47467,6.4 -2.21866,2.21866 -5.29066,2.21866 -3.072,0 -4.864,-1.87733 -0.0853,0.512 -0.0853,1.024 0,0.42667 0,0.85333 0,11.17867 10.32533,11.17867 9.04533,0 11.94667,-8.27733 0.512,-1.45067 0.85333,-3.49867 0.34133,-2.13333 0.59733,-4.864 0.0853,-1.792 -0.256,-3.24267 -0.59733,-2.21866 -1.792,-2.21866 -2.21866,0 -2.64533,5.29066 -0.0853,2.21867 -0.256,3.072 -0.0853,0.85334 -0.0853,0.512 0,2.048 1.024,2.048 l -0.34133,4.94934 H 166.7496 l 0.256,-4.26667 h 12.8 q -2.304,-2.816 -1.96266,-6.656 0.256,-4.608 2.98666,-7.50933 2.38934,-2.38934 5.632,-2.38934 4.52267,0 6.656,4.18134 1.792,3.66933 1.36534,8.78933 z"
       style="font-size:64px;line-height:1.25;font-family:Timmana;-inkscape-font-specification:Timmana;fill:#ffffff;fill-opacity:1;filter:url(#filter196110)"
       id="path24306" /><path
       d="m 463.54423,273.62949 q 0,-7.29673 -5.7213,-7.29673 -6.88214,0 -7.37964,10.28175 -0.33168,4.64337 0.66333,7.04797 1.4096,3.15086 5.05796,3.15086 7.37965,0 7.37965,-13.18385 z m 28.77231,3.64836 q -0.41458,6.38463 -4.97504,10.28175 -4.06295,3.56544 -9.1209,3.56544 -1.9071,0 -3.56545,-0.4975 -1.65834,-0.49751 -3.31669,-1.57543 -2.73628,-1.82418 -3.39962,-3.48253 -4.3117,5.38963 -12.18885,5.38963 -6.7163,0 -10.11591,-3.89712 -3.31669,-3.89711 -2.81919,-10.44758 0.58042,-6.55047 4.47754,-10.44758 4.14587,-4.06295 10.5305,-4.06295 13.76428,0 13.51553,13.59844 0,0 0,0.41459 0,0.41459 0.0829,1.16084 0.16584,3.73128 1.57544,6.2188 1.82417,3.15085 4.8092,3.15085 2.48752,0 4.8092,-2.65334 2.32169,-2.90211 2.65336,-7.21381 0.0829,-0.49751 0.0829,-0.9121 0.0829,-0.4975 0.0829,-0.995 0,-9.03799 -5.97005,-9.03799 h -3.98003 l 1.32667,-3.56545 q 0.16584,0 0.49751,0 0.41459,0 0.91209,-0.0829 h 1.99002 q 12.18884,0 12.18884,12.93511 0,0.58042 0,1.07792 0,0.4975 -0.0829,1.07793 z m -17.57847,-23.79728 q -0.66334,5.30671 -0.66334,5.38963 0,2.07293 1.74126,2.32169 1.65835,0.33166 2.57044,-0.99501 0.4975,-1.24376 1.24376,-2.40461 l 3.23377,-5.80421 q 2.48752,-3.56544 6.38464,-3.56544 0.74626,0 1.65835,0.24875 0.41458,0.49751 1.07792,1.74127 0.74626,1.24376 1.74127,3.15085 1.82417,3.3167 2.4046,3.56545 -0.91209,-0.33168 -1.82419,-0.58043 -0.82917,-0.24875 -1.74126,-0.24875 -2.81919,0 -5.97005,2.15585 -0.99501,0.74626 -1.74126,1.57543 -0.66333,0.74626 -2.07293,1.99002 -1.07792,0.995 -1.65835,1.49251 -0.49751,0.41459 -1.40959,0.99501 -1.16085,0.82918 -2.15585,1.07793 -0.99501,0.24875 -2.07293,0.24875 -0.99501,0 -1.74127,-0.16584 -0.74625,-0.16584 -1.57543,-0.4975 -3.56545,-1.57543 -3.73128,-6.79922 z m 35.32278,23.63144 q -0.41459,6.13589 -4.72628,10.19884 -4.14587,3.64836 -9.20383,3.64836 -6.2188,0 -8.1259,-6.7163 l 1.82418,-9.038 q 0.24875,0.0829 0.4975,0.49751 0.33168,0.58042 1.99002,1.57543 0,0.91209 0,4.47754 0.16584,3.48253 3.64836,3.81419 2.48752,0 4.80921,-2.15585 1.99001,-2.07293 2.73627,-7.04797 0.0829,-0.58042 0.0829,-1.07792 0,-0.49751 0,-0.9121 0,-8.1259 -5.63838,-8.1259 -0.99501,0.0829 -1.49251,0.16584 -0.41459,0.0829 -0.41459,0.0829 l 0.33167,-4.39461 q 0.91209,-0.24875 2.07293,-0.24875 4.22879,0 7.04797,2.15584 4.47754,3.23378 4.64338,10.77926 0,0.58042 0,1.16084 0,0.58043 -0.0829,1.16084 z"
       style="font-size:64px;line-height:1.25;font-family:Timmana;-inkscape-font-specification:Timmana;fill:#2b454e;fill-opacity:1;stroke-width:0.971687;filter:url(#filter196200)"
       id="path24308" /><rect
       style="fill:#2d464e;fill-opacity:1;stroke-width:0.306526;stop-color:#000000"
       id="rect37420"
       width="570.75623"
       height="20.850044"
       x="29.243814"
       y="483.17496"
       ry="0" /><g
       id="g149340"><path
         d="M 356.04672,483.39281 V 369.0928 h 21.39861 v 114.30001 z"
         style="fill:#dcdcdc;fill-opacity:1;fill-rule:nonzero;stroke:none;stroke-width:1.43133"
         id="path3222" /><path
         d="m 356.04672,396.17535 v -4.66111 h 21.39861 v 4.66111 z"
         style="fill:#8a8a8a;fill-opacity:1;fill-rule:nonzero;stroke:none;stroke-width:1.43133"
         id="path3224" /><path
         d="m 356.04672,469.94315 v -11.16804 h 21.39861 v 11.16804 z"
         style="fill:#8a8a8a;fill-opacity:1;fill-rule:nonzero;stroke:none;stroke-width:1.43133"
         id="path3226" /></g><g
       id="g149335"><path
         d="M 380.58362,483.39281 V 369.0928 h 21.39861 v 114.30001 z"
         style="fill:#22363d;fill-opacity:1;fill-rule:nonzero;stroke:none;stroke-width:1.43133"
         id="path93103" /><path
         d="m 380.58362,396.17535 v -4.66111 h 21.39861 v 4.66111 z"
         style="fill:#676c53;fill-opacity:1;fill-rule:nonzero;stroke:none;stroke-width:1.43133"
         id="path93105" /><path
         d="m 380.58362,469.94315 v -11.16804 h 21.39861 v 11.16804 z"
         style="fill:#676c53;fill-opacity:1;fill-rule:nonzero;stroke:none;stroke-width:1.43133"
         id="path93107" /></g><path
       d="M 405.38956,483.39281 V 369.0928 h 21.39861 v 114.30001 z"
       style="fill:#2b454e;fill-opacity:1;fill-rule:nonzero;stroke:none;stroke-width:1.43133"
       id="path93109" /><path
       d="m 405.38956,396.17535 v -4.66111 h 21.39861 v 4.66111 z"
       style="fill:#3a5f6b;fill-opacity:1;fill-rule:nonzero;stroke:none;stroke-width:1.43133"
       id="path93111" /><path
       d="m 405.38956,469.94315 v -11.16804 h 21.39861 v 11.16804 z"
       style="fill:#3a5f6b;fill-opacity:1;fill-rule:nonzero;stroke:none;stroke-width:1.43133"
       id="path93113" /><g
       id="g149330"
       transform="translate(0,-0.0493)"><path
         d="m 428.86562,474.16189 49.57002,-102.99177 19.28155,9.28022 -49.57002,102.99177 z"
         style="fill:#8a8a8a;fill-opacity:1;fill-rule:nonzero;stroke:none;stroke-width:1.43133"
         id="path93115" /><path
         d="m 466.69039,395.57326 2.02144,-4.19996 19.28155,9.28022 -2.02145,4.19997 z"
         style="fill:#6b6b6b;fill-opacity:1;fill-rule:nonzero;stroke:none;stroke-width:1.43133"
         id="path93117" /><path
         d="m 434.69852,462.04287 4.84339,-10.06313 19.28154,9.28022 -4.84339,10.06313 z"
         style="fill:#6b6b6b;fill-opacity:1;fill-rule:nonzero;stroke:none;stroke-width:1.43133"
         id="path93119" /></g><g
       id="g149345"
       transform="translate(0,-1.58929)"><path
         d="m 461.22391,463.58349 h 95.72432 v 21.39861 h -95.72432 z"
         style="fill:#676c53;fill-opacity:1;fill-rule:nonzero;stroke:none;stroke-width:1.30987"
         id="path93350" /><path
         d="m 534.26706,463.58349 h 3.9036 v 21.39861 h -3.9036 z"
         style="fill:#464938;fill-opacity:1;fill-rule:nonzero;stroke:none;stroke-width:1.30987"
         id="path93352" /><path
         d="m 472.48777,463.58349 h 9.35305 v 21.39861 h -9.35305 z"
         style="fill:#464938;fill-opacity:1;fill-rule:nonzero;stroke:none;stroke-width:1.30987"
         id="path93354" /></g><path
       d="m 469.00498,440.40413 h 95.72432 v 21.39861 h -95.72432 z"
       style="fill:#22363d;fill-opacity:1;fill-rule:nonzero;stroke:none;stroke-width:1.30987"
       id="path93358" /><path
       d="m 469.00498,456.59315 h 95.72432 v 5.20959 h -95.72432 z"
       style="fill:#2e4952;fill-opacity:1;fill-rule:nonzero;stroke:none;stroke-width:0.646305"
       id="path149515" /><g
       id="g168752"
       transform="translate(10.305428)"><rect
         style="fill:#c8c8c8;fill-opacity:1;stroke-width:0.240615;stop-color:#000000"
         id="rect149709"
         width="156.18108"
         height="95.653427"
         x="101.35976"
         y="369.20786"
         ry="5.888689" /><rect
         style="fill:#8a8a8a;fill-opacity:1;stroke-width:0.0744004;stop-color:#000000"
         id="rect153030"
         width="156.18108"
         height="9.1454411"
         x="101.35976"
         y="459.63611" /></g><circle
       style="fill:#ffffff;fill-opacity:1;stroke-width:0.256;stop-color:#000000"
       id="path158169"
       cx="189.75572"
       cy="418.99469"
       r="6.7761307" /><g
       id="g168757"
       transform="translate(-6.8094383)"><circle
         style="fill:#808080;fill-opacity:1;stroke-width:0.077386;stop-color:#000000"
         id="circle165351"
         cx="264.92444"
         cy="450.56345"
         r="2.0483489" /><circle
         style="fill:#999999;fill-opacity:1;stroke-width:0.077386;stop-color:#000000"
         id="circle165353"
         cx="258.4108"
         cy="450.56345"
         r="2.0483489" /><circle
         style="fill:#b3b3b3;fill-opacity:1;stroke-width:0.077386;stop-color:#000000"
         id="circle165355"
         cx="252.26372"
         cy="450.56345"
         r="2.0483489" /></g><rect
       style="fill:#b3b3b3;fill-opacity:1;stroke-width:0.256;stop-color:#000000"
       id="rect168666"
       width="11.665009"
       height="14.052608"
       x="183.92322"
       y="468.71356"
       ry="0" /><rect
       style="fill:#8a8a8a;fill-opacity:1;stroke-width:0.0190475;stop-color:#000000"
       id="rect168748"
       width="26.469839"
       height="3.5367658"
       x="176.5208"
       y="479.44891" /><text
       xml:space="preserve"
       style="font-size:33.9827px;line-height:1.25;font-family:Calibri;-inkscape-font-specification:Calibri;stroke-width:0.53098;fill:#22363d;fill-opacity:1;stroke:none;stroke-opacity:1"
       x="100.65014"
       y="314.77744"
       id="text169135"><tspan
         id="tspan169133"
         x="100.65014"
         y="314.77744"
         style="font-style:normal;font-variant:normal;font-weight:normal;font-stretch:normal;font-family:'Meera Inimai';-inkscape-font-specification:'Meera Inimai';stroke-width:0.53098;fill:#22363d;fill-opacity:1;stroke:none;stroke-opacity:1">அறிவியல்</tspan></text><circle
       style="fill:#ffe480;fill-opacity:1;stroke:none;stroke-width:0.256;stroke-opacity:1;stop-color:#000000;filter:url(#filter198301)"
       id="path196322"
       cx="92.751572"
       cy="148.98637"
       r="20.288055" /><circle
       style="fill:#ffe480;fill-opacity:1;stroke:none;stroke-width:0.177856;stroke-opacity:1;stop-color:#000000;filter:url(#filter198289)"
       id="circle197851"
       cx="122.23184"
       cy="110.99454"
       r="14.09509" /><circle
       style="fill:#ffe480;fill-opacity:1;stroke:none;stroke-width:0.177856;stroke-opacity:1;stop-color:#000000;filter:url(#filter198175)"
       id="circle197933"
       cx="440.61267"
       cy="337.00244"
       r="14.09509" /><circle
       style="fill:#ffe480;fill-opacity:1;stroke:none;stroke-width:0.260909;stroke-opacity:1;stop-color:#000000;filter:url(#filter198163)"
       id="circle197935"
       cx="491.04095"
       cy="321.46912"
       r="20.677086" /><g
       id="g206688"
       style="fill:#3a5f6b;fill-opacity:1;stroke:#525d68;stroke-opacity:1;stroke-width:0.6;stroke-miterlimit:4;stroke-dasharray:none"><path
         style="color:#000000;fill:#3a5f6b;fill-opacity:1;stroke:#525d68;stroke-opacity:1;stroke-width:0.6;stroke-miterlimit:4;stroke-dasharray:none"
         d="m 545.30664,164.47852 c -0.93718,-0.13269 -1.90103,-0.0945 -2.83984,0.13671 -1.8869,0.46478 -3.55567,1.69164 -4.49805,3.4336 -0.93616,1.73046 -1.06261,3.80997 -0.3418,5.64062 l 2.53516,-0.99804 c -0.41424,-1.05206 -0.33683,-2.35319 0.20117,-3.34766 0.54539,-1.00813 1.60482,-1.80094 2.75391,-2.08398 1.15836,-0.28533 2.48051,-0.0908 3.56054,0.5 1.25664,0.68742 2.26684,1.92917 2.8418,3.3496 0.58004,1.43299 0.76209,3.07199 0.65625,4.71875 -0.16051,2.49749 -0.96338,4.96404 -2.30273,7.07813 -1.33935,2.11409 -3.22644,3.89347 -5.41602,5.10547 l 1.31836,2.38281 c 2.59513,-1.43648 4.81102,-3.5256 6.39844,-6.03125 1.58741,-2.50565 2.52851,-5.39931 2.71875,-8.35937 0.12569,-1.95564 -0.0733,-4.00289 -0.84766,-5.91602 -0.77947,-1.92568 -2.15022,-3.67179 -4.06055,-4.7168 -0.83153,-0.45488 -1.74055,-0.75989 -2.67773,-0.89257 z"
         id="path1086-0" /><path
         id="path1038-6"
         style="color:#000000;font-style:normal;font-variant:normal;font-weight:normal;font-stretch:normal;font-size:medium;line-height:normal;font-family:sans-serif;font-variant-ligatures:normal;font-variant-position:normal;font-variant-caps:normal;font-variant-numeric:normal;font-variant-alternates:normal;font-variant-east-asian:normal;font-feature-settings:normal;font-variation-settings:normal;text-indent:0;text-align:start;text-decoration:none;text-decoration-line:none;text-decoration-style:solid;text-decoration-color:#000000;letter-spacing:normal;word-spacing:normal;text-transform:none;writing-mode:lr-tb;direction:ltr;text-orientation:mixed;dominant-baseline:auto;baseline-shift:baseline;text-anchor:start;white-space:normal;shape-padding:0;shape-margin:0;inline-size:0;clip-rule:nonzero;display:inline;overflow:visible;visibility:visible;isolation:auto;mix-blend-mode:normal;color-interpolation:sRGB;color-interpolation-filters:linearRGB;solid-color:#000000;solid-opacity:1;fill:#3a5f6b;fill-opacity:1;fill-rule:nonzero;stroke:#525d68;stroke-width:0.6;stroke-linecap:butt;stroke-linejoin:miter;stroke-miterlimit:4;stroke-dasharray:none;stroke-dashoffset:0;stroke-opacity:1;color-rendering:auto;image-rendering:auto;shape-rendering:auto;text-rendering:auto;enable-background:accumulate;stop-color:#000000"
         d="m 450.49308,164.43307 c -0.74628,0.006 -1.4894,0.0951 -2.21086,0.25868 -2.99838,0.68001 -5.58245,2.62157 -7.19823,5.18142 -1.61028,2.5511 -2.22705,5.61703 -1.91018,8.56824 0.28392,2.64449 1.30518,5.18841 2.92952,7.29446 1.62437,2.10605 3.82519,3.74017 6.31084,4.68654 l 0.96883,-2.5444 c -2.00765,-0.7644 -3.81119,-2.10401 -5.12322,-3.80512 -1.31202,-1.7011 -2.14933,-3.78608 -2.37866,-5.92209 -0.25482,-2.37342 0.25724,-4.84634 1.50542,-6.8238 1.24264,-1.9687 3.2742,-3.47539 5.49843,-3.97983 1.42501,-0.32318 2.94223,-0.23806 4.22517,0.30146 1.2703,0.53419 2.35352,1.56567 2.85118,2.77855 0.17029,0.41501 0.28861,0.87905 0.36517,1.37316 l -0.0158,17.3799 2.7092,1e-5 -0.003,-17.37991 c 0.0765,-0.49411 0.19503,-0.95815 0.36529,-1.37316 0.49767,-1.21288 1.58073,-2.24436 2.85104,-2.77855 1.28293,-0.53952 2.80028,-0.62464 4.22529,-0.30146 2.22422,0.50444 4.25566,2.01113 5.49831,3.97983 1.24818,1.97746 1.76039,4.45038 1.50556,6.8238 -0.22932,2.13601 -1.06663,4.22099 -2.37865,5.92209 -1.31203,1.70111 -3.11557,3.04072 -5.12325,3.80512 l 0.96871,2.5444 c 2.48562,-0.94637 4.68647,-2.58049 6.31084,-4.68654 1.62433,-2.10605 2.64559,-4.64997 2.92951,-7.29446 0.31688,-2.95121 -0.29992,-6.01714 -1.9102,-8.56824 -1.61579,-2.55985 -4.19982,-4.50141 -7.19821,-5.18142 -0.96192,-0.21815 -1.96251,-0.304 -2.95751,-0.23667 -0.99503,0.0674 -1.98473,0.28779 -2.92589,0.68359 -1.38954,0.58434 -2.62698,1.54371 -3.50631,2.78799 -0.87936,-1.24428 -2.11698,-2.20365 -3.50651,-2.78799 -0.94123,-0.39582 -1.93084,-0.61624 -2.9259,-0.68359 -0.24874,-0.0168 -0.49788,-0.024 -0.74665,-0.022 z" /><path
         id="path1158-6-3-4"
         style="color:#000000;font-style:normal;font-variant:normal;font-weight:normal;font-stretch:normal;font-size:medium;line-height:normal;font-family:sans-serif;font-variant-ligatures:normal;font-variant-position:normal;font-variant-caps:normal;font-variant-numeric:normal;font-variant-alternates:normal;font-variant-east-asian:normal;font-feature-settings:normal;font-variation-settings:normal;text-indent:0;text-align:start;text-decoration:none;text-decoration-line:none;text-decoration-style:solid;text-decoration-color:#000000;letter-spacing:normal;word-spacing:normal;text-transform:none;writing-mode:lr-tb;direction:ltr;text-orientation:mixed;dominant-baseline:auto;baseline-shift:baseline;text-anchor:start;white-space:normal;shape-padding:0;shape-margin:0;inline-size:0;clip-rule:nonzero;display:inline;overflow:visible;visibility:visible;isolation:auto;mix-blend-mode:normal;color-interpolation:sRGB;color-interpolation-filters:linearRGB;solid-color:#000000;solid-opacity:1;fill:#3a5f6b;fill-opacity:1;fill-rule:nonzero;stroke:#525d68;stroke-width:0.6;stroke-linecap:butt;stroke-linejoin:round;stroke-miterlimit:4;stroke-dasharray:none;stroke-dashoffset:0;stroke-opacity:1;color-rendering:auto;image-rendering:auto;shape-rendering:auto;text-rendering:auto;enable-background:accumulate;stop-color:#000000"
         d="m 489.86366,164.4852 c -6.39401,0 -12.0078,5.46499 -12.0078,12.50276 v 12.21557 h 23.41644 v -12.21557 c 0,-7.03777 -5.0147,-12.50276 -11.40864,-12.50276 z m -1.34136,2.75409 c 1.94903,2.16595 2.32467,4.11787 1.95929,6.10989 -0.36648,1.99776 -1.61743,4.05201 -3.19637,5.86721 -2.39713,2.75582 -5.44998,5.42499 -6.7827,6.29892 v -8.52735 c 0,-5.24729 3.78216,-9.07133 8.01978,-9.74867 z m 3.2243,0.0984 c 3.80361,0.97625 6.87904,4.7071 6.87904,9.65029 v 9.56897 H 482.918 c 1.65568,-1.1547 4.20585,-3.12223 6.36415,-5.60352 1.76344,-2.0274 3.52198,-4.41752 3.9069,-7.08769 0.31797,-2.20569 0.53823,-3.97376 -1.44245,-6.52805 z" /><path
         id="path1118-3"
         style="color:#000000;font-style:normal;font-variant:normal;font-weight:normal;font-stretch:normal;font-size:medium;line-height:normal;font-family:sans-serif;font-variant-ligatures:normal;font-variant-position:normal;font-variant-caps:normal;font-variant-numeric:normal;font-variant-alternates:normal;font-variant-east-asian:normal;font-feature-settings:normal;font-variation-settings:normal;text-indent:0;text-align:start;text-decoration:none;text-decoration-line:none;text-decoration-style:solid;text-decoration-color:#000000;letter-spacing:normal;word-spacing:normal;text-transform:none;writing-mode:lr-tb;direction:ltr;text-orientation:mixed;dominant-baseline:auto;baseline-shift:baseline;text-anchor:start;white-space:normal;shape-padding:0;shape-margin:0;inline-size:0;clip-rule:nonzero;display:inline;overflow:visible;visibility:visible;isolation:auto;mix-blend-mode:normal;color-interpolation:sRGB;color-interpolation-filters:linearRGB;solid-color:#000000;solid-opacity:1;fill:#3a5f6b;fill-opacity:1;fill-rule:nonzero;stroke:#525d68;stroke-width:0.6;stroke-linecap:butt;stroke-linejoin:miter;stroke-miterlimit:4;stroke-dasharray:none;stroke-dashoffset:0;stroke-opacity:1;color-rendering:auto;image-rendering:auto;shape-rendering:auto;text-rendering:auto;enable-background:accumulate;stop-color:#000000"
         d="m 532.09522,164.48523 -2.37632,1.32959 c 2.15213,3.84563 2.44527,8.75464 0.76616,12.82909 -1.67911,4.07445 -5.34548,7.35123 -9.58222,8.56399 -1.32608,0.37958 -2.68546,0.56142 -3.99161,0.45714 -1.30083,-0.10386 -2.56696,-0.5029 -3.59282,-1.19467 -1.01803,-0.68646 -1.82217,-1.69879 -2.17535,-2.80592 -0.34867,-1.09309 -0.24996,-2.35483 0.28401,-3.29812 0.56708,-1.00178 1.686,-1.77605 2.9248,-2.11116 1.46525,-0.39637 3.2443,-0.24654 5.22498,-0.34533 0.99232,-0.0495 2.04663,-0.17479 3.09606,-0.53483 1.05708,-0.36266 2.09648,-0.96633 2.88972,-1.9061 0.94877,-1.1239 1.37766,-2.53346 1.40274,-3.90733 0.0295,-1.61587 -0.4942,-3.21724 -1.51029,-4.495 -1.01815,-1.28036 -2.4812,-2.16728 -4.10941,-2.44705 -1.63182,-0.2804 -3.33339,0.0694 -4.71562,1.00989 -0.54146,0.36839 -1.01773,0.819 -1.41546,1.32976 -0.22272,-0.28173 -0.468,-0.54711 -0.73722,-0.79069 -1.29158,-1.16861 -3.01417,-1.77794 -4.75713,-1.67131 -1.74414,0.1067 -3.38726,0.92424 -4.51892,2.26149 -1.13245,1.33817 -1.67008,3.10065 -1.46689,4.84631 0.20879,1.79403 1.18452,3.42694 2.66565,4.46056 l 1.55843,-2.23224 c -0.81689,-0.57006 -1.4046,-1.55324 -1.51975,-2.54267 -0.11235,-0.96523 0.21043,-2.02758 0.84102,-2.77273 0.63138,-0.74607 1.62686,-1.24339 2.60682,-1.30334 0.98116,-0.06 2.03205,0.31045 2.76425,0.97294 0.56717,0.51319 1.15634,1.23287 1.33269,1.99322 0.0705,0.30394 0.10027,0.54497 0.0995,0.8366 l -0.004,1.61829 2.2989,3e-5 0.007,-1.61707 c 0.003,-0.4 0.0256,-0.74419 0.0437,-0.85075 0.15073,-0.89428 0.97056,-1.76786 1.7335,-2.28697 0.7663,-0.52138 1.79341,-0.73807 2.72273,-0.57839 0.93295,0.16031 1.83991,0.70493 2.43919,1.45855 0.60134,0.75623 0.93742,1.76881 0.9195,2.75119 -0.0152,0.82835 -0.28925,1.64114 -0.76129,2.20032 -0.39801,0.47153 -1.00285,0.85044 -1.69272,1.08711 -0.69744,0.23929 -1.49601,0.34859 -2.34829,0.3911 -1.70847,0.0852 -3.69938,-0.13195 -5.79975,0.43623 -1.83775,0.49713 -3.58071,1.62617 -4.58367,3.39798 -0.95292,1.68337 -1.07668,3.68437 -0.50811,5.46684 0.5641,1.76843 1.7624,3.23498 3.24688,4.23599 1.4766,0.99571 3.19016,1.5153 4.89803,1.65166 1.7026,0.13594 3.38245,-0.10297 4.95813,-0.55401 5.07197,-1.45185 9.34029,-5.26671 11.3504,-10.14441 2.01014,-4.8777 1.66889,-10.59201 -0.90754,-15.19578 z" /><g
         id="path29-3"
         style="fill:#3a5f6b;fill-opacity:1;stroke:#525d68;stroke-opacity:1;stroke-width:0.6;stroke-miterlimit:4;stroke-dasharray:none"><path
           style="color:#000000;fill:#3a5f6b;stroke-width:0.6;fill-opacity:1;stroke:#525d68;stroke-opacity:1;stroke-miterlimit:4;stroke-dasharray:none"
           d="m 514.64045,191.32231 c -1.09189,0.006 -2.18926,0.18233 -3.23252,0.56333 -1.49945,0.54756 -2.83539,1.50503 -3.83553,2.74914 -1.00014,1.2441 -1.64865,2.75477 -1.86124,4.33682 -0.21259,1.58205 0.014,3.21025 0.65018,4.67425 0.63622,1.46401 1.67203,2.7407 2.97367,3.66469 l 0.97477,-1.37316 c -1.04698,-0.7432 -1.89271,-1.78466 -2.40441,-2.96221 -0.51178,-1.17754 -0.69665,-2.50683 -0.52563,-3.77933 0.17102,-1.27249 0.70031,-2.50521 1.50475,-3.50588 0.80447,-1.00068 1.89474,-1.78244 3.10078,-2.22287 1.06636,-0.38943 2.23907,-0.52143 3.40268,-0.43429 -1.29611,0.70039 -2.51556,1.5992 -3.4975,2.75819 -1.13072,1.33456 -1.9218,3.01279 -2.0295,4.81944 -0.0896,1.50449 0.31633,3.08051 1.33713,4.28246 0.51021,0.60078 1.16045,1.08895 1.90856,1.39038 0.75003,0.30216 1.58052,0.4075 2.39558,0.26868 0.92352,-0.1573 1.77357,-0.62131 2.4055,-1.31287 0.0891,-0.0976 0.17278,-0.19933 0.25197,-0.30427 0.0791,0.10494 0.16274,0.20672 0.25184,0.30427 0.63196,0.69156 1.48201,1.15557 2.40547,1.31287 0.81509,0.13882 1.64561,0.0335 2.39558,-0.26868 0.74817,-0.30143 1.39835,-0.7896 1.90859,-1.39038 1.02077,-1.20195 1.42647,-2.77797 1.33682,-4.28246 -0.10769,-1.80665 -0.89886,-3.48488 -2.02961,-4.81944 -0.98191,-1.15899 -2.20109,-2.0578 -3.49711,-2.75819 1.16358,-0.0871 2.33596,0.0449 3.40232,0.43429 1.20603,0.44043 2.29682,1.22219 3.10129,2.22287 0.80444,1.00067 1.33324,2.23339 1.50423,3.50588 0.17102,1.27249 -0.014,2.60179 -0.5256,3.77933 -0.51176,1.17755 -1.35697,2.21901 -2.40391,2.96221 l 0.97463,1.37316 c 1.30168,-0.92399 2.33746,-2.20068 2.97368,-3.66469 0.63624,-1.464 0.86241,-3.0922 0.64979,-4.67425 -0.21262,-1.58205 -0.86062,-3.09272 -1.86073,-4.33682 -1.00017,-1.24411 -2.33627,-2.20158 -3.83562,-2.74914 -1.04333,-0.381 -2.14057,-0.55698 -3.23249,-0.56333 -1.17986,-0.006 -2.33551,0.30693 -3.5193,0.65736 -1.04332,-0.36765 -2.17343,-0.63739 -3.30089,-0.65639 -0.0727,-9.1e-4 -0.14543,-0.001 -0.21822,-9.1e-4 z m 3.51911,2.3134 c 0.49444,0.17473 0.98122,0.38084 1.45682,0.6135 1.35387,0.66234 2.59402,1.52854 3.52757,2.63041 0.92894,1.09644 1.55137,2.45725 1.63326,3.83116 0.0672,1.12713 -0.2537,2.28456 -0.93943,3.09202 -0.34305,0.40394 -0.77985,0.7273 -1.25436,0.91846 -0.47262,0.19042 -0.99935,0.25345 -1.48369,0.17095 -0.54465,-0.0928 -1.07287,-0.38089 -1.44552,-0.78873 -0.37266,-0.40784 -0.84066,-0.95771 -0.84066,-1.51018 v -1.38269 h -1.3081 v 1.38269 c 0,0.55247 -0.46811,1.10234 -0.84077,1.51018 -0.37269,0.40783 -0.90051,0.69597 -1.44513,0.78873 -0.48437,0.0825 -1.01107,0.0195 -1.48375,-0.17095 -0.47448,-0.19116 -0.91165,-0.51452 -1.25469,-0.91846 -0.68579,-0.80746 -1.00662,-1.96489 -0.93943,-3.09202 0.0818,-1.37391 0.70471,-2.73471 1.63362,-3.83116 0.93358,-1.10187 2.17373,-1.96807 3.5276,-2.63041 0.47551,-0.23265 0.96225,-0.43877 1.45666,-0.6135 z"
           id="path201678" /><path
           style="color:#000000;fill:#3a5f6b;fill-opacity:1;stroke:#525d68;stroke-opacity:1;stroke-width:0.6;stroke-miterlimit:4;stroke-dasharray:none"
           d="m 514.80078,191.16016 -0.16016,0.002 h -0.002 c -1.10863,0.006 -2.22276,0.18428 -3.28515,0.57226 -1.52732,0.55774 -2.88752,1.53159 -3.90625,2.79883 -1.01873,1.26722 -1.67994,2.80454 -1.89649,4.41602 -0.21654,1.61147 0.0141,3.27051 0.66211,4.76172 0.64804,1.49122 1.70345,2.78929 3.0293,3.73047 l 0.13086,0.0937 1.16211,-1.63672 -0.13282,-0.0918 c -1.02245,-0.72579 -1.84992,-1.74659 -2.34961,-2.89648 -0.49977,-1.14991 -0.68067,-2.45072 -0.51367,-3.69336 0.16701,-1.24263 0.68512,-2.44856 1.47071,-3.42578 0.78561,-0.97723 1.85351,-1.74178 3.03125,-2.17188 0.87444,-0.31934 1.83955,-0.3704 2.79882,-0.35742 -1.11631,0.66136 -2.20687,1.40435 -3.07226,2.42578 -1.14982,1.3571 -1.95627,3.06657 -2.06641,4.91406 -0.0917,1.53996 0.32288,3.15766 1.375,4.39649 0.52605,0.61942 1.1967,1.12368 1.9707,1.43554 0.77622,0.31271 1.63623,0.42147 2.48243,0.27735 0.95907,-0.16336 1.8418,-0.64512 2.49804,-1.36328 0.047,-0.0515 0.0887,-0.10675 0.13282,-0.16016 0.0441,0.0534 0.0857,0.10864 0.13281,0.16016 0.65627,0.71816 1.53708,1.19992 2.49609,1.36328 0.84623,0.14412 1.70821,0.0354 2.48438,-0.27735 0.77407,-0.31186 1.44463,-0.81612 1.9707,-1.43554 1.0521,-1.23884 1.46676,-2.85654 1.375,-4.39649 -0.11012,-1.8475 -0.91852,-3.55697 -2.06836,-4.91406 -0.86536,-1.02142 -1.95606,-1.76441 -3.07226,-2.42578 0.95929,-0.013 1.92623,0.0381 2.80078,0.35742 1.17774,0.4301 2.2437,1.19468 3.02929,2.17188 0.78557,0.97719 1.30372,2.18311 1.47071,3.42578 0.167,1.24262 -0.0141,2.54343 -0.51368,3.69336 -0.49976,1.14993 -1.32721,2.1707 -2.3496,2.89648 l -0.13086,0.0918 1.16015,1.63672 0.13281,-0.0937 c 1.3259,-0.94118 2.37931,-2.23926 3.02735,-3.73047 0.64807,-1.49123 0.87868,-3.15028 0.66211,-4.76172 -0.21657,-1.61144 -0.87582,-3.14878 -1.89453,-4.41602 -1.01877,-1.26724 -2.37904,-2.24109 -3.90625,-2.79883 -1.06249,-0.38799 -2.17852,-0.56581 -3.28711,-0.57226 -1.19303,-0.006 -2.34933,0.31061 -3.51953,0.65625 -1.04068,-0.36269 -2.16558,-0.63715 -3.29883,-0.65625 -0.0203,-2.5e-4 -0.0403,1.4e-4 -0.0605,0 z m 6.87695,0.32226 c 1.07525,0.006 2.15357,0.18069 3.17774,0.55469 1.47149,0.53738 2.78405,1.47825 3.76562,2.69922 0.98151,1.22096 1.61751,2.7032 1.82618,4.25586 0.20866,1.55265 -0.0123,3.15308 -0.63672,4.58984 -0.60262,1.3867 -1.58553,2.58798 -2.80078,3.48633 l -0.78907,-1.11133 c 1.01085,-0.75298 1.8376,-1.76231 2.33985,-2.91797 0.52359,-1.20515 0.71409,-2.56287 0.53906,-3.86523 -0.175,-1.30232 -0.71575,-2.55984 -1.53906,-3.58399 -0.82335,-1.02416 -1.93756,-1.82267 -3.17188,-2.27343 -1.09106,-0.39842 -2.28506,-0.53197 -3.46875,-0.44336 l -0.54883,0.041 0.48438,0.25977 c 1.28248,0.69307 2.48326,1.58054 3.44922,2.7207 1.11165,1.31203 1.88693,2.95881 1.99218,4.72461 0.0875,1.46903 -0.30938,3.00487 -1.29882,4.16992 -0.49441,0.58214 -1.12344,1.05471 -1.84571,1.34571 -0.72377,0.29162 -1.52464,0.39133 -2.30859,0.25781 -0.88791,-0.15125 -1.70485,-0.59677 -2.3125,-1.26172 -0.0853,-0.0934 -0.16581,-0.19164 -0.24219,-0.29297 l -0.1289,-0.16992 -0.12891,0.16992 c -0.0765,0.10134 -0.1568,0.19944 -0.24219,0.29297 -0.60761,0.66495 -1.42648,1.11047 -2.31445,1.26172 -0.78392,0.13351 -1.58475,0.0338 -2.30859,-0.25781 -0.72221,-0.291 -1.35133,-0.76358 -1.84571,-1.34571 -0.98947,-1.16506 -1.38631,-2.7009 -1.29883,-4.16992 0.10527,-1.7658 0.88057,-3.41259 1.99219,-4.72461 0.96598,-1.14015 2.16859,-2.02762 3.45117,-2.7207 l 0.48243,-0.25977 -0.54688,-0.041 c -1.18372,-0.0887 -2.37962,0.0449 -3.4707,0.44336 -1.23434,0.45076 -2.3466,1.2493 -3.16992,2.27343 -0.82329,1.02412 -1.36403,2.28164 -1.53907,3.58399 -0.17503,1.30235 0.0133,2.66006 0.53711,3.86523 0.50203,1.1553 1.32943,2.16508 2.33985,2.91797 l -0.78907,1.11133 c -1.21518,-0.89835 -2.19622,-2.09966 -2.79882,-3.48633 -0.62436,-1.43679 -0.84731,-3.03722 -0.63868,-4.58984 0.20864,-1.55262 0.84462,-3.03488 1.82618,-4.25586 0.98154,-1.22098 2.29404,-2.16184 3.76562,-2.69922 1.02035,-0.37263 2.0948,-0.54562 3.16602,-0.55274 h 0.0117 c 0.0719,-8e-5 0.144,-8.7e-4 0.21485,0 1.1036,0.0186 2.21777,0.28275 3.25,0.64649 l 0.0488,0.0176 0.0508,-0.0137 c 1.18145,-0.34974 2.3218,-0.6582 3.47265,-0.65235 z m -3.51757,1.98242 -0.0547,0.0195 c -0.50062,0.17693 -0.99191,0.38589 -1.47266,0.6211 -1.36878,0.66963 -2.62794,1.54615 -3.58008,2.66992 -0.94843,1.1195 -1.58756,2.50976 -1.67187,3.92578 -0.0694,1.16406 0.25766,2.35864 0.97656,3.20508 0.35929,0.42307 0.8173,0.76297 1.31836,0.96484 0.49972,0.20135 1.05352,0.26771 1.57031,0.17969 0.58206,-0.0991 1.13883,-0.40205 1.53711,-0.83789 0.37598,-0.41147 0.88282,-0.97571 0.88282,-1.61914 v -1.22266 h 0.98632 v 1.22266 c 0,0.64341 0.50682,1.20765 0.88282,1.61914 0.39829,0.4359 0.95505,0.73872 1.53711,0.83789 0.51677,0.088 1.0726,0.0216 1.57226,-0.17969 0.50112,-0.20188 0.95715,-0.54181 1.31641,-0.96484 0.71883,-0.84644 1.04596,-2.04101 0.97656,-3.20508 -0.0844,-1.41598 -0.72144,-2.80627 -1.66992,-3.92578 -0.95211,-1.12378 -2.2113,-2.00029 -3.58008,-2.66992 -0.48084,-0.23522 -0.97397,-0.44417 -1.47461,-0.6211 z m 0,0.34571 c 0.46911,0.16824 0.93231,0.36265 1.38476,0.58398 1.33896,0.65504 2.56158,1.50988 3.47656,2.58984 0.9094,1.07337 1.51633,2.4045 1.59571,3.73633 0.065,1.09019 -0.24972,2.21004 -0.90235,2.97852 -0.32684,0.38485 -0.7435,0.69261 -1.1914,0.87305 -0.44558,0.17952 -0.94458,0.23908 -1.39649,0.1621 -0.50724,-0.0864 -1.0065,-0.36045 -1.35351,-0.74023 -0.36933,-0.40419 -0.79883,-0.93886 -0.79883,-1.40039 v -1.54492 h -1.63086 v 1.54492 c 0,0.46151 -0.42949,0.99619 -0.79883,1.40039 -0.34709,0.37982 -0.84438,0.65385 -1.35156,0.74023 -0.45195,0.077 -0.95085,0.0174 -1.39649,-0.1621 -0.44789,-0.18045 -0.86656,-0.48824 -1.19335,-0.87305 -0.65268,-0.76848 -0.96538,-1.88832 -0.9004,-2.97852 0.0793,-1.33179 0.68633,-2.66292 1.59571,-3.73633 0.91502,-1.07996 2.13565,-1.9348 3.47461,-2.58984 0.4529,-0.22159 0.91705,-0.41561 1.38672,-0.58398 z"
           id="path201680" /></g><path
         style="fill:#3a5f6b;fill-opacity:1;fill-rule:nonzero;stroke:#525d68;stroke-width:0.6;stroke-linecap:butt;stroke-linejoin:miter;stroke-miterlimit:4;stroke-dasharray:none;stroke-opacity:1"
         d="m 581.83353,181.61252 c -0.009,-0.24687 -0.0952,-0.98038 -0.14254,-1.22121 -0.0973,-0.49487 -0.25403,-1.04855 -0.5015,-1.62977 -0.34162,-0.8024 -0.85764,-1.66081 -1.61232,-2.44133 -0.64571,-0.66781 -1.44985,-1.25834 -2.39075,-1.69568 -0.85464,-0.39724 -1.82007,-0.66608 -2.84427,-0.73521 -1.25332,-0.0827 -2.5349,0.14398 -3.72247,0.65382 -1.1489,0.49324 -2.20966,1.25153 -3.04696,2.24508 -0.82599,0.98013 -1.40163,2.14822 -1.70569,3.37872 -0.30565,1.23695 -0.3379,2.54048 -0.0726,3.78904 0.21144,1.00263 0.60645,1.94633 1.13799,2.77948 0.55749,0.87383 1.26264,1.623 2.06893,2.2077 0.87113,0.6317 1.83101,1.04782 2.776,1.27527 1.07639,0.25908 2.1261,0.27366 3.07425,0.11001 1.32644,-0.22952 2.3966,-0.78831 3.15525,-1.31273 0.77367,-0.5348 1.63176,-1.31586 2.36418,-2.38 0.5804,-0.84326 1.06199,-1.81978 1.41543,-2.92941 0.31097,-0.97627 0.51282,-2.02518 0.60225,-3.1215 0.14563,-1.78535 -0.0127,-3.65533 -0.51777,-5.48653 -0.48188,-1.74701 -1.27959,-3.45362 -2.41219,-4.97232 -1.10884,-1.48685 -2.52284,-2.75943 -4.13498,-3.71849 -1.60365,-0.954 -3.39852,-1.5946 -5.26813,-1.82433 -2.7006,-0.33182 -5.38645,0.197 -7.65531,1.32265 -2.54924,1.26476 -4.47844,3.22784 -5.71315,5.22726 -1.05144,1.70264 -1.63508,3.47034 -1.9155,5.05819 -0.21017,1.19014 -0.25305,2.28852 -0.20616,3.24688 0.0263,0.53685 0.0929,1.2879 0.27329,2.16143 0.33594,1.62696 0.99921,3.34953 2.08048,4.99258 1.2847,1.95218 2.75603,3.18203 3.76228,3.88582 l 1.56054,-2.23118 c -0.80586,-0.56365 -2.00115,-1.56012 -3.04837,-3.15142 -0.88224,-1.34063 -1.41848,-2.73916 -1.6884,-4.0464 -0.145,-0.70222 -0.19898,-1.30821 -0.2203,-1.74388 -0.038,-0.77661 -0.003,-1.67021 0.16793,-2.64032 0.22907,-1.29711 0.7046,-2.73071 1.55085,-4.10108 1.00031,-1.61984 2.54797,-3.19744 4.60661,-4.21879 1.81853,-0.90222 3.9703,-1.32258 6.11315,-1.05928 1.47209,0.18087 2.90845,0.68871 4.20812,1.46188 1.30699,0.77753 2.45152,1.80895 3.3444,3.00622 0.91624,1.2286 1.57119,2.62243 1.97008,4.06857 0.41816,1.51599 0.54913,3.06563 0.42877,4.54118 -0.074,0.90717 -0.23926,1.75179 -0.48283,2.5165 -0.27612,0.86685 -0.64251,1.59974 -1.06395,2.21206 -0.52655,0.76501 -1.13476,1.31428 -1.66956,1.68397 -0.53059,0.36677 -1.23677,0.7323 -2.07797,0.88561 -0.59378,0.10865 -1.27395,0.11139 -1.9907,-0.0508 -0.63066,-0.14268 -1.27157,-0.4102 -1.85068,-0.81643 -0.5381,-0.37749 -1.02623,-0.87495 -1.42233,-1.4736 -0.37795,-0.5712 -0.66289,-1.22141 -0.82076,-1.9108 -0.19353,-0.8536 -0.18736,-1.76847 0.0184,-2.65299 0.20458,-0.87945 0.60058,-1.70318 1.15918,-2.38479 0.5652,-0.68968 1.30214,-1.2368 2.11764,-1.59986 0.8432,-0.37539 1.74309,-0.54269 2.60586,-0.49686 0.7114,0.0363 1.39598,0.21325 2.01113,0.48804 0.67651,0.30221 1.25231,0.71425 1.71064,1.17657 0.53686,0.54153 0.91366,1.15108 1.16333,1.72605 0.18092,0.41663 0.29488,0.81342 0.36433,1.16654 0.0338,0.17175 0.0947,0.69155 0.10113,0.86512 z"
         id="path88-5-8" /></g><g
       id="g216429"
       style="filter:url(#filter216641)"><g
         id="g213126"
         style="fill:#c8c8c8;fill-opacity:1"
         transform="matrix(0.77619601,0,0,0.77619601,-522.07189,73.77602)"><circle
           style="fill:#c8c8c8;fill-opacity:1;stroke:none;stroke-width:0.6;stroke-miterlimit:4;stroke-dasharray:none;stroke-opacity:1;stop-color:#000000"
           id="path213013"
           cx="767.23108"
           cy="175.76241"
           r="8.2011833" /><circle
           style="fill:#c8c8c8;fill-opacity:1;stroke:none;stroke-width:0.6;stroke-miterlimit:4;stroke-dasharray:none;stroke-opacity:1;stop-color:#000000"
           id="circle213095"
           cx="795.09479"
           cy="175.76241"
           r="8.2011833" /><circle
           style="fill:#c8c8c8;fill-opacity:1;stroke:none;stroke-width:0.6;stroke-miterlimit:4;stroke-dasharray:none;stroke-opacity:1;stop-color:#000000"
           id="circle213097"
           cx="824.03351"
           cy="175.76241"
           r="8.2011833" /><circle
           style="fill:#c8c8c8;fill-opacity:1;stroke:none;stroke-width:0.6;stroke-miterlimit:4;stroke-dasharray:none;stroke-opacity:1;stop-color:#000000"
           id="circle213099"
           cx="847.75391"
           cy="175.76241"
           r="8.2011833" /><circle
           style="fill:#c8c8c8;fill-opacity:1;stroke:none;stroke-width:0.6;stroke-miterlimit:4;stroke-dasharray:none;stroke-opacity:1;stop-color:#000000"
           id="circle213101"
           cx="873.30951"
           cy="175.76241"
           r="8.2011833" /></g><g
         id="g213138"
         transform="matrix(0.77619601,0,0,0.77619601,-504.4537,89.578505)"
         style="fill:#c8c8c8;fill-opacity:1"><circle
           style="fill:#c8c8c8;fill-opacity:1;stroke:none;stroke-width:0.6;stroke-miterlimit:4;stroke-dasharray:none;stroke-opacity:1;stop-color:#000000"
           id="circle213128"
           cx="767.23108"
           cy="175.76241"
           r="8.2011833" /><circle
           style="fill:#c8c8c8;fill-opacity:1;stroke:none;stroke-width:0.6;stroke-miterlimit:4;stroke-dasharray:none;stroke-opacity:1;stop-color:#000000"
           id="circle213130"
           cx="795.09479"
           cy="175.76241"
           r="8.2011833" /><circle
           style="fill:#c8c8c8;fill-opacity:1;stroke:none;stroke-width:0.6;stroke-miterlimit:4;stroke-dasharray:none;stroke-opacity:1;stop-color:#000000"
           id="circle213132"
           cx="824.03351"
           cy="175.76241"
           r="8.2011833" /><circle
           style="fill:#c8c8c8;fill-opacity:1;stroke:none;stroke-width:0.6;stroke-miterlimit:4;stroke-dasharray:none;stroke-opacity:1;stop-color:#000000"
           id="circle213134"
           cx="847.75391"
           cy="175.76241"
           r="8.2011833" /><circle
           style="fill:#c8c8c8;fill-opacity:1;stroke:none;stroke-width:0.6;stroke-miterlimit:4;stroke-dasharray:none;stroke-opacity:1;stop-color:#000000"
           id="circle213136"
           cx="873.30951"
           cy="175.76241"
           r="8.2011833" /></g><g
         id="g213150"
         transform="matrix(0.77619601,0,0,0.77619601,-535.03617,105.4244)"
         style="fill:#c8c8c8;fill-opacity:1"><circle
           style="fill:#c8c8c8;fill-opacity:1;stroke:none;stroke-width:0.6;stroke-miterlimit:4;stroke-dasharray:none;stroke-opacity:1;stop-color:#000000"
           id="circle213140"
           cx="767.23108"
           cy="175.76241"
           r="8.2011833" /><circle
           style="fill:#c8c8c8;fill-opacity:1;stroke:none;stroke-width:0.6;stroke-miterlimit:4;stroke-dasharray:none;stroke-opacity:1;stop-color:#000000"
           id="circle213142"
           cx="795.09479"
           cy="175.76241"
           r="8.2011833" /><circle
           style="fill:#c8c8c8;fill-opacity:1;stroke:none;stroke-width:0.6;stroke-miterlimit:4;stroke-dasharray:none;stroke-opacity:1;stop-color:#000000"
           id="circle213144"
           cx="824.03351"
           cy="175.76241"
           r="8.2011833" /><circle
           style="fill:#c8c8c8;fill-opacity:1;stroke:none;stroke-width:0.6;stroke-miterlimit:4;stroke-dasharray:none;stroke-opacity:1;stop-color:#000000"
           id="circle213146"
           cx="847.75391"
           cy="175.76241"
           r="8.2011833" /><circle
           style="fill:#c8c8c8;fill-opacity:1;stroke:none;stroke-width:0.6;stroke-miterlimit:4;stroke-dasharray:none;stroke-opacity:1;stop-color:#000000"
           id="circle213148"
           cx="873.30951"
           cy="175.76241"
           r="8.2011833" /></g><g
         id="g213162"
         transform="matrix(0.77619601,0,0,0.77619601,-503.56013,120.9279)"
         style="fill:#c8c8c8;fill-opacity:1"><circle
           style="fill:#c8c8c8;fill-opacity:1;stroke:none;stroke-width:0.6;stroke-miterlimit:4;stroke-dasharray:none;stroke-opacity:1;stop-color:#000000"
           id="circle213152"
           cx="767.23108"
           cy="175.76241"
           r="8.2011833" /><circle
           style="fill:#c8c8c8;fill-opacity:1;stroke:none;stroke-width:0.6;stroke-miterlimit:4;stroke-dasharray:none;stroke-opacity:1;stop-color:#000000"
           id="circle213154"
           cx="795.09479"
           cy="175.76241"
           r="8.2011833" /><circle
           style="fill:#c8c8c8;fill-opacity:1;stroke:none;stroke-width:0.6;stroke-miterlimit:4;stroke-dasharray:none;stroke-opacity:1;stop-color:#000000"
           id="circle213156"
           cx="824.03351"
           cy="175.76241"
           r="8.2011833" /><circle
           style="fill:#c8c8c8;fill-opacity:1;stroke:none;stroke-width:0.6;stroke-miterlimit:4;stroke-dasharray:none;stroke-opacity:1;stop-color:#000000"
           id="circle213158"
           cx="847.75391"
           cy="175.76241"
           r="8.2011833" /><circle
           style="fill:#c8c8c8;fill-opacity:1;stroke:none;stroke-width:0.6;stroke-miterlimit:4;stroke-dasharray:none;stroke-opacity:1;stop-color:#000000"
           id="circle213160"
           cx="873.30951"
           cy="175.76241"
           r="8.2011833" /></g></g></g></svg>
